<svg id="Layer_1" data-name="Layer 1" xmlns="http://www.w3.org/2000/svg" viewBox="0 0 1922.17 1098.9"><defs><style>.cls-1{fill:#333;}</style></defs><path class="cls-1" d="M119.48,556.89a28,28,0,0,1-6.38,4.87,12.42,12.42,0,0,1-4,1.37,8.15,8.15,0,0,1-4.56-.61,8,8,0,0,1-3.6-3.2,10.65,10.65,0,0,1-1.49-4.53,12.48,12.48,0,0,1,.39-4.74,18.62,18.62,0,0,1,1.77-4.22,57,57,0,0,1,4.87-6.85l4.93-6.3q5-6.28,10-12.54l5-6.21a53.64,53.64,0,0,0,4.26-6,25.87,25.87,0,0,0,1.52-2.95,15.31,15.31,0,0,0,.89-2.83,9.14,9.14,0,0,0,.18-2.57,9.61,9.61,0,0,0-.16-1.2,7.34,7.34,0,0,0-.34-1.1c-1-2.9-4.37-5.59-8.06-6.67a19.11,19.11,0,0,0-2.94-.59,26,26,0,0,0-3.21-.13,37.3,37.3,0,0,0-6.91.89,75.9,75.9,0,0,0-14.13,4.66c-4.69,2-9.39,4.4-14.34,6.7-2.48,1.15-5,2.29-7.62,3.32-1.31.51-2.62,1-4,1.47l-2,.66-1.88.6c-5,1.61-10.11,3.3-15.35,4.76a106.82,106.82,0,0,1-16.11,3.34,78.44,78.44,0,0,1-8.24.55,52.12,52.12,0,0,1-8.34-.52,29.53,29.53,0,0,1-8.17-2.42,18.78,18.78,0,0,1-6.79-5.17,17.1,17.1,0,0,1-2.27-3.55,14.92,14.92,0,0,1-1.32-3.93A13,13,0,0,1,1,497.17a11.6,11.6,0,0,1,1.19-3.78,11.36,11.36,0,0,0,.34,7.49,13.72,13.72,0,0,0,1.77,3.26,14.4,14.4,0,0,0,2.46,2.7A16,16,0,0,0,13,510.18a26.53,26.53,0,0,0,7.18,1,63.83,63.83,0,0,0,14.92-2,116.44,116.44,0,0,0,14.6-4.72c4.85-1.87,9.71-3.94,14.72-5.95l1.89-.75,1.74-.72c1.15-.48,2.29-1,3.44-1.54,2.3-1.07,4.6-2.26,6.92-3.48,4.65-2.44,9.43-5.09,14.58-7.44,2.58-1.17,5.24-2.27,8-3.22a74.51,74.51,0,0,1,8.47-2.34c5.84-1.22,12.46-1.75,19.15.48a25.63,25.63,0,0,1,9,5.3,20.77,20.77,0,0,1,5.92,9.25,18.43,18.43,0,0,1,.78,5.62,19.64,19.64,0,0,1-.21,2.77,22.15,22.15,0,0,1-.58,2.62,29,29,0,0,1-4.34,8.73,60.51,60.51,0,0,1-5.58,6.68L128,526.22q-5.61,5.74-11.25,11.39l-5.66,5.62a55,55,0,0,0-5.16,5.49,13.9,13.9,0,0,0-1.74,2.88,8.42,8.42,0,0,0-.72,3.07,5.92,5.92,0,0,0,2.39,5.42,5.83,5.83,0,0,0,3.1.93,11.17,11.17,0,0,0,3.6-.59A28.49,28.49,0,0,0,119.48,556.89Z" transform="translate(0.73 9.48)"/><path class="cls-1" d="M136.7,536.84c-6.76,1.09-12.78.43-18-2.13s-9.28-6.88-12.52-12.83c6.71-1.08,12.69-.44,17.85,2.08S133.43,530.85,136.7,536.84Z" transform="translate(0.73 9.48)"/><path class="cls-1" d="M123.85,549.71c-6.15,1-11.43.38-15.75-2.12s-7.47-6.68-9.67-12.45c6.11-1,11.37-.39,15.67,2.06S121.64,543.89,123.85,549.71Z" transform="translate(0.73 9.48)"/><path class="cls-1" d="M1823.44,958.33c-1.92-3.53-3.9-7-6.06-10.39a57.48,57.48,0,0,0-7.25-9.25,36.43,36.43,0,0,0-4.28-3.72,26.61,26.61,0,0,0-4.77-2.7,22.51,22.51,0,0,0-10.35-1.86,34.84,34.84,0,0,0-10.55,2.32,56.72,56.72,0,0,0-10,5,64,64,0,0,0-16.42,15c-9.3,11.87-15.39,26.6-22.64,41.6a184.52,184.52,0,0,1-12.54,22.5,103.13,103.13,0,0,1-8.19,10.69,83.36,83.36,0,0,1-10,9.56,71.4,71.4,0,0,1-9.26,6.39,60.3,60.3,0,0,1-10.38,4.84,56.55,56.55,0,0,1-11.37,2.78,58.25,58.25,0,0,1-5.92.38,40.22,40.22,0,0,1-6.07-.34,43.33,43.33,0,0,1-6-1.25,39.32,39.32,0,0,1-5.86-2.22,31.21,31.21,0,0,1-10.45-7.92,25.87,25.87,0,0,1-3.7-5.75c-.24-.51-.49-1-.71-1.53l-.57-1.58a26.16,26.16,0,0,1-.89-3.16,38.19,38.19,0,0,1-.57-12c.71-7.39,2.53-13.64,3.08-19.37q1.11-9.75,2.31-19.46t2.47-19.32l.64-4.71a32.06,32.06,0,0,0,.29-4.28c-.08-2.83-.46-4.72-2.12-6.21a5.26,5.26,0,0,0-2.93-1.21,7.19,7.19,0,0,0-3.37.48,9.83,9.83,0,0,0-5.23,5.48,19,19,0,0,0-1.4,8.43,62.4,62.4,0,0,0,1.18,8.94,60.15,60.15,0,0,1-2.74-8.75,21,21,0,0,1,.06-9.6,14.76,14.76,0,0,1,2.1-4.73,12.3,12.3,0,0,1,4-3.77,11.44,11.44,0,0,1,11.57-.2,11.76,11.76,0,0,1,4.32,4.78,17.41,17.41,0,0,1,1.12,2.93,24.33,24.33,0,0,1,.6,2.81,38.48,38.48,0,0,1,.36,5.38l0,4.94q-.09,9.69-.18,19.44t-.36,19.5c0,3.64-.43,7.16-.77,10.4s-.67,6.32-.7,9.16c-.14,5.74,1.2,10,4,12.8s7.65,4.79,12.68,5.18a35.18,35.18,0,0,0,7.81-.4,39.8,39.8,0,0,0,7.85-2.2,54.47,54.47,0,0,0,14.67-8.78,71,71,0,0,0,7.9-7.62,97.57,97.57,0,0,0,7-8.89,207.46,207.46,0,0,0,12.09-20.25c3.83-7.11,7.64-14.47,12-21.73a118.82,118.82,0,0,1,15.31-20.82,71.39,71.39,0,0,1,21.17-15.61,62.61,62.61,0,0,1,12.37-4.43,41.34,41.34,0,0,1,13.34-1.08,29.37,29.37,0,0,1,6.68,1.37,23.55,23.55,0,0,1,3.17,1.27l1.52.75c.49.28,1,.58,1.44.87a32.6,32.6,0,0,1,9.32,9,57,57,0,0,1,6,10.83C1820.83,950.73,1822.17,954.52,1823.44,958.33Z" transform="translate(0.73 9.48)"/><path class="cls-1" d="M1642.42,996.76a7.68,7.68,0,0,1-3.06-3.19,10.9,10.9,0,0,1-1.16-4.64,14.76,14.76,0,0,1,3.15-9.54,18.53,18.53,0,0,1,3.92-3.63,25.79,25.79,0,0,1,4.5-2.48,44.84,44.84,0,0,1,9.13-2.61c2.94-.55,5.59-1,8.37-1.39s5.53-.77,8.31-1.08q8.33-1,16.75-1.36t16.64-.24c5.61.09,10.8.46,15.63.29a41.68,41.68,0,0,0,7.05-.78,26.27,26.27,0,0,0,3.3-.88,24.32,24.32,0,0,0,3.21-1.39,20.7,20.7,0,0,0,5.77-4.38,15.93,15.93,0,0,0,3.73-6.83,16.17,16.17,0,0,1-.23,8.71,23,23,0,0,1-4.46,8.17,27.36,27.36,0,0,1-3.39,3.42,31.85,31.85,0,0,1-4,2.8,40.74,40.74,0,0,1-8.71,3.78,95.9,95.9,0,0,1-17.25,3.18q-8.27,1-16.63,1.38t-16.76.27q-4.18-.08-8.35-.28c-2.75-.13-5.63-.33-8.2-.53a52,52,0,0,0-7.19-.16,19.46,19.46,0,0,0-3.19.46,13.42,13.42,0,0,0-2.83,1,10,10,0,0,0-4.33,4.73A7.45,7.45,0,0,0,1642.42,996.76Z" transform="translate(0.73 9.48)"/><path class="cls-1" d="M822.91-4.42c6.3,4.73,9.55,7.37,9,8.47-.27.53-1.43.73-3.48.66s-5-.43-8.86-1a39,39,0,0,1-7.39-5.07C810.63-2.78,810-4,810.37-4.78,811.05-6.42,815.47-6.49,822.91-4.42Z" transform="translate(0.73 9.48)"/><path class="cls-1" d="M854.56-4.42a34.2,34.2,0,0,1,2.08,10.63c.19,3.65,0,7.31-.16,10.87q-.51,10.7-1.21,21.4T853.7,59.92c-.31,3.58-.62,7.15-.92,10.73l-1,10.66c-.6,6.87-.86,13.52,0,19.34a29.56,29.56,0,0,0,2.06,7.78,17.73,17.73,0,0,0,3.71,5.57,16.71,16.71,0,0,0,5.29,3.4,22.26,22.26,0,0,0,6.92,1.57,29,29,0,0,0,7.63-.49,28.33,28.33,0,0,0,3.7-1c.62-.2,1.27-.47,1.91-.7s1.28-.54,1.91-.85a60.82,60.82,0,0,0,14.69-10.23c2.37-2.15,4.71-4.47,7-6.91,1.17-1.21,2.22-2.42,3.34-3.63s2.16-2.52,3.24-3.77c8.52-10.24,16.07-22.08,24.47-33.88,4.2-5.89,8.63-11.77,13.51-17.36l3.74-4.11,3.64-3.83,7.31-7.7c9.81-10.25,20-20.42,31.28-28.95-8.59,11.25-15.88,23.19-23.41,35.21q-2.82,4.51-5.71,9l-2.93,4.51-2.72,4.33c-3.54,5.83-6.8,11.91-10.06,18.15-6.52,12.43-13,25.62-22.07,38.16-1.17,1.54-2.28,3.12-3.51,4.64s-2.46,3.08-3.71,4.5c-2.5,2.91-5.16,5.79-8,8.59a76,76,0,0,1-20.67,14.58,59.69,59.69,0,0,1-6.37,2.47c-1.13.35-2.27.7-3.42.95l-1.71.4-1.74.3a49.5,49.5,0,0,1-14.08.36,43.71,43.71,0,0,1-14-4.14,36.52,36.52,0,0,1-12-9.4,38.26,38.26,0,0,1-7.06-13,48.82,48.82,0,0,1-2.11-13.32c-.2-8.54,1.21-16.25,2.83-23.51l1.26-5.31,1.29-5.22q1.32-5.22,2.63-10.41Q842.47,47,845.31,36.7t5.85-20.56c1-3.43,2-6.75,2.7-10.15A34.5,34.5,0,0,0,854.56-4.42Z" transform="translate(0.73 9.48)"/><path class="cls-1" d="M811.92,54.49c10-8.76,20.58-13.89,31.75-15S866,41.22,877.5,47.67c-9.93,8.7-20.43,13.82-31.51,15S823.48,61,811.92,54.49Z" transform="translate(0.73 9.48)"/><path class="cls-1" d="M819.8,20.07c9.05-8,18.42-12.42,28.1-12.77s19.17,3.3,28.74,10.53c-9,8-18.29,12.36-27.9,12.76S829.43,27.35,819.8,20.07Z" transform="translate(0.73 9.48)"/><path class="cls-1" d="M392.23,378.82c-4.62,5.17-9.31,10.39-15,14.71a44.13,44.13,0,0,1-9.36,5.51,31.66,31.66,0,0,1-11,2.52,29.53,29.53,0,0,1-11.46-1.66,24.74,24.74,0,0,1-5.39-2.81,21.05,21.05,0,0,1-4.55-4.3,25,25,0,0,1-4.86-11.32,42.1,42.1,0,0,1-.25-11.68,61.81,61.81,0,0,1,6.54-21.89,68.45,68.45,0,0,1,13.79-18.36A67.42,67.42,0,0,1,370,316.66c1.79-.8,3.67-1.4,5.51-2.1s3.8-1.07,5.71-1.59c1.95-.35,3.9-.73,5.87-1s4-.38,5.94-.41A67.18,67.18,0,0,1,436,326.63a65.7,65.7,0,0,1,15,17.14c.25.41.52.8.75,1.22l.66,1.27,1.31,2.55a22.53,22.53,0,0,1,1.16,2.61l1.07,2.65a43.32,43.32,0,0,1,1.69,5.51,42.42,42.42,0,0,1,1,5.73,34.73,34.73,0,0,1-.61,11.86,26.74,26.74,0,0,1-2.11,5.76,24.77,24.77,0,0,1-3.49,5.1,25,25,0,0,1-9.94,6.59,31.2,31.2,0,0,1-11.21,1.89,35.45,35.45,0,0,1-5.56-.47,36.45,36.45,0,0,1-5.35-1.36,48.91,48.91,0,0,1-9.71-4.53c-6.07-3.64-11.34-8.15-16.54-12.66,5.8,3.74,11.64,7.5,17.86,10.23a47.94,47.94,0,0,0,9.52,3.11,30.78,30.78,0,0,0,9.65.5,26.58,26.58,0,0,0,9-2.51,18.69,18.69,0,0,0,6.78-5.53c3.42-4.6,4-10.84,2.81-16.9a36.92,36.92,0,0,0-1.17-4.54,33.51,33.51,0,0,0-1.72-4.41,53.65,53.65,0,0,0-4.69-8.37,58,58,0,0,0-13.39-13.77,58.63,58.63,0,0,0-35.94-11.74c-12.74.32-25.18,5.86-34.84,14.47s-16.69,20.37-18.85,33.13c-1.11,6.32-.93,12.8,2.2,17.44a16,16,0,0,0,6.53,5.55,24.46,24.46,0,0,0,9,2.2,27.94,27.94,0,0,0,9.55-1.13,41.91,41.91,0,0,0,9.17-4C381.6,387.79,386.94,383.28,392.23,378.82Z" transform="translate(0.73 9.48)"/><path class="cls-1" d="M669.26,582.45a108.63,108.63,0,0,0-27.63-25.67,115.61,115.61,0,0,0-33.29-14.32l-4.36-.94c-.72-.16-1.44-.34-2.17-.47l-2.2-.32-4.36-.67-4.39-.35-2.18-.19c-.73-.07-1.46,0-2.19,0l-4.36-.06c-.72,0-1.44.05-2.17.08l-2.16.14-2.16.12c-.36,0-.72,0-1.07.06l-1.07.16c-2.85.41-5.67.68-8.55,1.3s-5.74,1.27-8.62,2.09c-5.77,1.59-11.59,3.59-17.51,5.81-11.73,4.37-23.68,9.62-36.58,14a172.71,172.71,0,0,1-19.89,5.49,110.07,110.07,0,0,1-21,2.47l-2.67,0L456,571c-1.78,0-3.58-.23-5.35-.38s-3.55-.45-5.32-.73l-2.68-.53-1.33-.28-1.32-.35a66.31,66.31,0,0,1-19.46-8.51,56.61,56.61,0,0,1-15-14.2,42.59,42.59,0,0,1-7.41-18.32,43.4,43.4,0,0,0,11.69,14.41,54.86,54.86,0,0,0,15.71,8.44,62,62,0,0,0,17.08,3.22,19.11,19.11,0,0,0,2.14.05h2.12c1.45-.08,2.89-.11,4.34-.25s2.88-.25,4.33-.48c.72-.11,1.44-.19,2.16-.31l2.16-.39c11.5-2.14,22.82-6.42,34.32-11.39s23.31-10.74,36.23-15.57a160.38,160.38,0,0,1,20.24-6.23c1.74-.43,3.54-.75,5.3-1.11s3.59-.63,5.4-.87c3.61-.54,7.36-.65,11-.86a23.29,23.29,0,0,1,2.77,0l2.76.08,2.75.1a25.06,25.06,0,0,1,2.74.2,99.3,99.3,0,0,1,10.8,1.6c1.77.38,3.54.72,5.29,1.16l5.17,1.53,2.57.77,2.5,1,5,2a106.24,106.24,0,0,1,34.07,23.74A94.05,94.05,0,0,1,669.26,582.45Z" transform="translate(0.73 9.48)"/><path class="cls-1" d="M397.44,661.54l.5,2.36.24,1.16.37,1.13.74,2.23,1,2.12.47,1.05.59,1,1.16,2,1.34,1.84c.23.3.44.61.67.9l.75.85,1.48,1.67,1.61,1.55.8.76.87.7,1.71,1.39,1.82,1.25.89.62.95.55,1.88,1.1,1.95,1a44.45,44.45,0,0,0,16.16,4.38,54.94,54.94,0,0,0,8.41-.06,63.3,63.3,0,0,0,8.39-1.22,93.47,93.47,0,0,0,16.58-5.27A166.61,166.61,0,0,0,485,678.63c10.88-5.91,22-12.92,34.42-19.09A143.83,143.83,0,0,1,539,651.46c1.71-.55,3.49-1,5.24-1.47s3.49-1,5.26-1.33l5.33-.95,2.66-.46c.89-.14,1.79-.19,2.68-.29a114.81,114.81,0,0,1,42,3.26c26.81,7.17,50.1,24.25,63.56,46.07a120.79,120.79,0,0,0-32.17-19.1l-2.12-.87-1.06-.44-1.09-.36-4.34-1.45-2.15-.73-2.21-.58-4.38-1.17-1.09-.29-1.11-.22-2.22-.44-4.41-.9-4.45-.6-2.22-.31-1.1-.16-1.12-.08a122.57,122.57,0,0,0-35.07,1.68,38.07,38.07,0,0,0-4.23,1l-4.2,1c-1.38.4-2.73.9-4.1,1.33s-2.74.83-4.1,1.37a171.4,171.4,0,0,0-16.46,7.3c-11.15,5.53-22.55,12.11-35.14,17.69a139.18,139.18,0,0,1-19.76,7.12,95.42,95.42,0,0,1-21.29,3.44,74.38,74.38,0,0,1-11-.38c-1.82-.16-3.64-.51-5.45-.82-.9-.15-1.79-.4-2.68-.6s-1.77-.39-2.68-.7a52.82,52.82,0,0,1-19.25-10.29,51.23,51.23,0,0,1-7.41-7.61L404.11,688l-.76-1.07-.67-1.13-1.32-2.26-1.11-2.35-.54-1.17-.44-1.23-.85-2.42-.61-2.49-.28-1.23-.17-1.26-.3-2.48,0-2.5c0-.41,0-.81,0-1.22l.14-1.23Z" transform="translate(0.73 9.48)"/><path class="cls-1" d="M577.73,532.21a516.83,516.83,0,0,1-53.46,18.2l-.43.12-.21.06c-.07,0,0,0-.07,0l-.19.13L523,551a2.28,2.28,0,0,0-.51.52,1.41,1.41,0,0,0-.22,1.27,2.22,2.22,0,0,0,.56,1,.73.73,0,0,1,.17.23l.47,1.62,1,3.4q3.81,13.66,6.87,27.6t5.25,27.67q1.11,6.93,2,13.87a121.53,121.53,0,0,0,2,12.26,25.23,25.23,0,0,0,3.88,9.18,15.82,15.82,0,0,0,3.44,3.33,19.4,19.4,0,0,0,4.79,2.44,33.42,33.42,0,0,0,5.91,1.39,55.06,55.06,0,0,0,6.53.49,134.42,134.42,0,0,0,13.77-.62,90.63,90.63,0,0,1-12.75,6.33,42.64,42.64,0,0,1-15,3.17,30.41,30.41,0,0,1-8.52-1.17,28.69,28.69,0,0,1-8.26-4,31.85,31.85,0,0,1-6.64-6.41,44.25,44.25,0,0,1-4.63-7.37,93,93,0,0,1-5.58-14.55q-2.09-6.71-4-13.49-3.81-13.54-6.87-27.39t-5.31-27.86l-.56-3.49-.13-.87c-.05-.3-.07-.5-.18-1.11-.16-1-.36-2.17-.46-3.26a23.52,23.52,0,0,1,1.63-12.44,17.14,17.14,0,0,1,8.35-8.48,22.63,22.63,0,0,1,5.84-1.79c1-.17,2-.3,3.08-.41l1.54-.15.91-.05A516.39,516.39,0,0,1,577.73,532.21Z" transform="translate(0.73 9.48)"/><path class="cls-1" d="M1921.44,443.09a107,107,0,0,1-20-12.49,88.3,88.3,0,0,1-16.87-17.81A94.09,94.09,0,0,1,1873,390.48a98.33,98.33,0,0,1,3-73.57,86.66,86.66,0,0,1,30.28-36.29A181.09,181.09,0,0,0,1898,323.1c-.54,6.83-.76,13.56-.67,20.23s.34,13.28,1,19.88,1.42,13.19,2.57,19.74,2.59,13.08,4.4,19.66a181.27,181.27,0,0,0,6.85,19.89C1914.86,429.25,1918.05,436.11,1921.44,443.09Z" transform="translate(0.73 9.48)"/><path class="cls-1" d="M1756.13,351.91a72,72,0,0,0-11.76,28.7,93.18,93.18,0,0,0-.1,30.27,120.21,120.21,0,0,0,8.31,28.87,126.63,126.63,0,0,0,6.62,13.36c.59,1.08,1.26,2.12,1.88,3.19s1.36,2.12,2,3.18l2.05,3.18,2.18,3.11c11.61,16.63,26.05,31.65,41,47.15,7.49,7.76,15.12,15.66,22.62,24l5.58,6.33c1.84,2.2,3.73,4.34,5.51,6.59s3.61,4.48,5.34,6.8,3.46,4.65,5.15,7a212.1,212.1,0,0,1,11.66,18.41,175.47,175.47,0,0,1,9.54,19.88,147.35,147.35,0,0,1,6.58,21.26c.35,1.84.69,3.67,1,5.5l.25,1.37a4,4,0,0,1,.06.4l.07.57.13,1.16.51,4.59c.17,1.52.34,3,.5,4.55s.24,3.07.37,4.59.21,3,.32,4.56l.16,2.26c0,.75.13,1.52.11,2.21-4.76,1.7-9.62,3.35-14.24,5.08-1.15.44-2.28.91-3.41,1.36l-2.36,1c-1,.44-2.09.89-3.11,1.37-2,1-4,2-6,3l-1.45.82-1.35.8c-.81.47-1.55,1-2.28,1.5a22.2,22.2,0,0,0-3.49,3.05,14.65,14.65,0,0,0-1.44,1.89,1.85,1.85,0,0,1-.14.14s-.1.07-.09.11l0,0,0,0h0l-.15,0h0a1.38,1.38,0,0,0-.25,0l-.15.06-.1,0,.06,0s-.08,0,.09-.06l.18-.13,0,0v0a.17.17,0,0,1,0,.1c0,.08.12.14.14.27a2.85,2.85,0,0,1,.33.35,6.48,6.48,0,0,0,2.83,1.16,9.15,9.15,0,0,0,3.43,0c.22-.09.48-.11.71-.19s.45-.16.72-.3.61-.33.89-.54.62-.41.9-.67a16.22,16.22,0,0,0,3.28-3.74,34.92,34.92,0,0,0,4.41-11.4c.24-1.09.44-2.18.64-3.31.17-.87.38-3,.49-4.67.21-3.5.26-7,.33-10.24l.33-.35a4,4,0,0,1,.58-.18l1.19-.34,2.36-.67,4.61-1.24,4.5-1.1,2.21-.48,1.74-.33c4.63-.84,9.2-1.5,13.75-2.06,9.08-1.13,18-1.87,27-2.77-8.47,3-17.06,5.73-25.58,8.69-4.26,1.49-8.51,3-12.71,4.69l-1.56.63-1.09.49-2.08,1-1.94,1-.91.5-.45.25c-.06,0-.17.06-.2.13l.06.3c.32,1.72.57,3.32.77,4.81a19.39,19.39,0,0,1,.21,2.8c0,1.34,0,2.74,0,4.13a48.93,48.93,0,0,1-3.57,17.3,33.33,33.33,0,0,1-5.24,8.57c-.55.68-1.2,1.31-1.81,2s-1.3,1.2-2,1.83-1.62,1.18-2.45,1.75-1.77,1-2.67,1.46a28.26,28.26,0,0,1-23.12.2c-1-.5-2-1-2.93-1.59a27.47,27.47,0,0,1-2.82-2.1,21.74,21.74,0,0,1-4.74-5.82,23.18,23.18,0,0,1-2.65-14.53,29,29,0,0,1,4.73-11.94,43.41,43.41,0,0,1,7-8.07c1.25-1.13,2.52-2.2,3.83-3.18.68-.53,1.22-.92,1.83-1.36l1.79-1.27q3.6-2.49,7.39-4.66c1.26-.73,2.53-1.43,3.81-2.11l1-.5.11-.06,0,0,0,0,.18-.17.55-.55a1.86,1.86,0,0,0-.2-.54l-.25-.53-.12-.26,0-.06s0,0,0-.05l-.07-.26-.27-1.06-1.08-4.21a133.76,133.76,0,0,0-6.16-16.74A191.34,191.34,0,0,0,1827,580.9l-2.23-3.13-2.32-3.09c-1.52-2.07-3.14-4.09-4.73-6.13s-3.26-4-4.89-6l-5.1-6.07c-6.86-8.07-14-16.15-21.11-24.46s-14.18-16.85-20.86-25.87a230.66,230.66,0,0,1-18.3-28.64l-2-3.78-1.85-3.88c-1.24-2.55-2.43-5.23-3.5-7.94a132.42,132.42,0,0,1-5.37-16.47,122.33,122.33,0,0,1-3.86-33.93,95.27,95.27,0,0,1,6.63-32.94A70.8,70.8,0,0,1,1756.13,351.91Z" transform="translate(0.73 9.48)"/><path class="cls-1" d="M1.44,164.62A95.08,95.08,0,0,0,42.5,159.4a65,65,0,0,0,9-4.13A52.81,52.81,0,0,0,59.42,150c4.8-3.9,8.57-8.5,10.43-13.42A26.48,26.48,0,0,0,71,121.23a42.51,42.51,0,0,0-6.82-15.33c-.81-1.19-1.71-2.33-2.62-3.44-.49-.54-.92-1.08-1.43-1.63l-1.55-1.64A74.43,74.43,0,0,0,51.64,93c-1.25-1-2.53-2-3.85-2.92l-.5-.36-.38-.27-.54-.38-2.19-1.5c-1.41-1-3-2-4.59-3-6.3-4-13.19-7.85-20-11.78L-.73,60.93,31,53,39,51c2.59-.65,5-1.38,7.31-2.17,1.17-.39,2.29-.81,3.4-1.26l2.44-1c.9-.39,1.77-.79,2.61-1.21l5.78-1.51a11.69,11.69,0,0,0-4.6.94,11.85,11.85,0,0,0-3.73,2.51l2.59-2a40.47,40.47,0,0,0,3.77-2.14,29,29,0,0,0,8.25-8l1.78-2.36a11,11,0,0,0-2.36,3.58,10.81,10.81,0,0,0-.78,4l1.37-5.25A19.48,19.48,0,0,0,70,27.13a14.25,14.25,0,0,0-1.3-8,18.57,18.57,0,0,0-2.53-4,27.49,27.49,0,0,0-3.76-3.7,44.38,44.38,0,0,0-10-6,56.76,56.76,0,0,0-5.71-2.22c-1-.33-2-.63-3-.91s-2.07-.54-3.11-.79A111.92,111.92,0,0,0,27.9-.78,113.17,113.17,0,0,0,1.44-.7,98.58,98.58,0,0,1,27.81-8a102.63,102.63,0,0,1,14.07-.84c1.19,0,2.37,0,3.58.1s2.45.17,3.68.3A65.23,65.23,0,0,1,56.5-7.24a55.15,55.15,0,0,1,14.56,5.4A42.75,42.75,0,0,1,78,2.89,35.93,35.93,0,0,1,84.05,9.5a33,33,0,0,1,4.31,8.44,32.26,32.26,0,0,1,1.7,9.58,38.55,38.55,0,0,1-4.3,18.24l1.37-5.25A11,11,0,0,1,84,48.16l1.78-2.37a47.41,47.41,0,0,1-8.18,11.49,47.92,47.92,0,0,1-5.38,4.83,58.23,58.23,0,0,1-5.84,4l2.59-2a12,12,0,0,1-8.4,3.49l5.77-1.51c-1.25.74-2.52,1.45-3.8,2.11l-.91.46c.1,0,0,0,0,0h0v0l0,.08a.45.45,0,0,0,0,.23c0,.1.13.15.22.17l.15,0s0,0,0,0,0,0,0,0l.07.06.07.08,1.14.87c1.6,1.23,3.19,2.53,4.75,3.88A90.78,90.78,0,0,1,76.81,83l2.06,2.46,2,2.63c1.27,1.8,2.48,3.63,3.58,5.54a60.06,60.06,0,0,1,8.1,25.19,46.45,46.45,0,0,1-.89,13.78A42.73,42.73,0,0,1,86.5,145.5,44.05,44.05,0,0,1,78,155.79,54.23,54.23,0,0,1,67.56,163a60.87,60.87,0,0,1-11.14,4.59A70.75,70.75,0,0,1,45,170.08,87.19,87.19,0,0,1,1.44,164.62Z" transform="translate(0.73 9.48)"/><path class="cls-1" d="M208.44,160a27.38,27.38,0,0,1-18.7,7.31A30.78,30.78,0,0,1,179,165.47a29.19,29.19,0,0,1-9.9-6,36.13,36.13,0,0,1-7.2-9.12,45.47,45.47,0,0,1-4.23-10.73,79.58,79.58,0,0,1-2.1-21.69c.16-7,.89-13.79,1.5-20.18s1-12.5,1.1-18.54A102.8,102.8,0,0,0,157,61.82c-.17-1.41-.5-2.73-.75-4.08-.11-.68-.32-1.3-.47-2s-.31-1.32-.51-1.94c-.43-1.24-.74-2.54-1.26-3.71l-.68-1.8-.81-1.71c-.48-1.17-1.17-2.17-1.72-3.27-.29-.54-.67-1-1-1.53s-.64-1.07-1-1.49L147.76,39a9.17,9.17,0,0,0-1.11-1.31l-1.21-1.24c-.21-.21-.39-.43-.61-.63l-.68-.56A38.71,38.71,0,0,0,131.54,28a43.11,43.11,0,0,0-14.93-2.44,37.41,37.41,0,0,0-14.68,3.26,36.93,36.93,0,0,0-6.87,4,81.62,81.62,0,0,0-6.86,5.56c-4.59,4.08-9.23,8.77-14.48,13.1A56.47,56.47,0,0,1,55.86,61.85a34.1,34.1,0,0,1-10.08,1.86A24.49,24.49,0,0,1,36.05,62a24.22,24.22,0,0,0,9.26-1.28,32.15,32.15,0,0,0,8-4.14A54.93,54.93,0,0,0,65.92,43.86C69.57,38.93,72.94,33.52,77,28a83.82,83.82,0,0,1,6.83-8.15,52.43,52.43,0,0,1,8.79-7.42,53.11,53.11,0,0,1,22.14-8.42A60.39,60.39,0,0,1,138.5,5.44a58.07,58.07,0,0,1,21.85,11,24.72,24.72,0,0,1,2.39,2.08l2.3,2.2c1.48,1.52,2.81,3.23,4.18,4.87a60.54,60.54,0,0,1,6.34,10.6,67.16,67.16,0,0,1,4.14,11.36A83,83,0,0,1,181.76,59a104.72,104.72,0,0,1,0,22,169.72,169.72,0,0,1-3.35,20.53c-1.45,6.51-3,12.61-4.09,18.57-2.2,11.86-3,23.31,3,32.24C182.66,160.82,196.65,165.61,208.44,160Z" transform="translate(0.73 9.48)"/><path class="cls-1" d="M1312.83,292.72c-2.9.54-5.78,1.21-8.59,2a71.62,71.62,0,0,0-8.21,3,51.8,51.8,0,0,0-7.56,4.09,40.1,40.1,0,0,0-6.42,5.34,31,31,0,0,0-4.65,6.6,24.25,24.25,0,0,0-2.16,15.16,28.35,28.35,0,0,0,2.31,7.41,30.45,30.45,0,0,0,4.17,6.45,24.91,24.91,0,0,0,5.65,4.89,27.5,27.5,0,0,0,14.28,4,33,33,0,0,0,7.6-.86c.62-.16,1.26-.27,1.86-.48l1.83-.58a36.32,36.32,0,0,0,3.5-1.53,30.27,30.27,0,0,0,6.27-4.17,41.1,41.1,0,0,0,5.38-5.81,144.6,144.6,0,0,0,9.27-14.54c1.56-2.62,3.14-5.24,5-7.93a65,65,0,0,1,6.13-7.65,46.14,46.14,0,0,1,7.65-6.62,33,33,0,0,1,9.53-4.56,28.29,28.29,0,0,1,5.33-1c.9-.11,1.84-.05,2.76-.07a18,18,0,0,1,2.74.22,27.36,27.36,0,0,1,10.08,3.49,31.12,31.12,0,0,1,7.81,6.63,31.7,31.7,0,0,1,5.26,8.51,30.67,30.67,0,0,1,2.31,9.65,30.09,30.09,0,0,1-1,9.65,36,36,0,0,1-3.58,8.7,40.17,40.17,0,0,1-5.55,7.32,41.43,41.43,0,0,1-14.72,9.92,42.12,42.12,0,0,0,12.62-11.71,38.91,38.91,0,0,0,4.08-7.38,31.66,31.66,0,0,0,2.08-7.94,28.61,28.61,0,0,0,.23-4l-.11-2-.29-1.92a25.17,25.17,0,0,0-13.54-17.63,18.16,18.16,0,0,0-6.83-1.69l-.86-.05c-.28,0-.57.05-.85.06a12.46,12.46,0,0,0-1.7.19,18,18,0,0,0-3.39.91c-4.43,1.63-8.47,5-11.93,9s-6.29,8.84-9.22,14.08a127.43,127.43,0,0,1-10.08,16,48.81,48.81,0,0,1-7.11,7.44,39.5,39.5,0,0,1-9,5.66,42.3,42.3,0,0,1-20.34,3.88,38.55,38.55,0,0,1-15.12-4.11l-2.29-1.32c-.77-.43-1.47-1-2.2-1.5a35,35,0,0,1-7.36-7.42,38.61,38.61,0,0,1-4.78-9,35.12,35.12,0,0,1-2.08-9.9,31.22,31.22,0,0,1,.88-10.05,30.83,30.83,0,0,1,4.06-9.14,35.33,35.33,0,0,1,6.54-7.18,41.25,41.25,0,0,1,8-5,51.68,51.68,0,0,1,8.59-3.18,66.28,66.28,0,0,1,8.83-1.75A82.77,82.77,0,0,1,1312.83,292.72Z" transform="translate(0.73 9.48)"/><path class="cls-1" d="M941.63,405a114.43,114.43,0,0,0,14.31,47.48,119.82,119.82,0,0,0,30.55,36,104.17,104.17,0,0,0,9.42,6.65c1.58,1.05,3.27,1.95,4.89,2.92s3.32,1.82,5,2.6a91.79,91.79,0,0,0,10.34,4.31c.88.29,1.74.61,2.64.89l2.74.78c1.84.51,3.62,1.11,5.53,1.49s3.74.91,5.67,1.28l5.81,1.07c4,.58,7.91,1.2,12,1.63,8.17.95,16.62,1.64,25.37,2.4s17.57,1.66,26.63,3a170.77,170.77,0,0,1,27.47,6.34l3.43,1.11c1.14.4,2.27.88,3.41,1.31l3.38,1.35,1.69.68,1.69.78a108.43,108.43,0,0,1,13,7,112.83,112.83,0,0,1,11.75,8.56,119,119,0,0,1,10.44,9.86,117.61,117.61,0,0,1,27.16,48c5,17.42,5.56,35.71,1.54,52.29a113.73,113.73,0,0,0-14.84-47,119.55,119.55,0,0,0-30.8-35.38c-3.07-2.3-6.2-4.47-9.44-6.45a107.92,107.92,0,0,0-9.93-5.32,93.52,93.52,0,0,0-10.32-4.11c-.85-.32-1.78-.56-2.69-.82l-2.72-.79c-.92-.25-1.78-.57-2.73-.76l-2.81-.64c-14.91-3.53-31.34-4.58-48.71-6.11-8.72-.75-17.74-1.66-26.88-3.1a166.62,166.62,0,0,1-27.7-6.56l-1.73-.55c-.57-.2-1.15-.44-1.72-.65l-3.43-1.33-3.41-1.36-3.4-1.56a108,108,0,0,1-12.93-7.26c-1-.66-2.06-1.34-3-2.06s-2-1.41-3-2.14c-1.92-1.51-3.86-3-5.68-4.58a112,112,0,0,1-10.37-10.05,118.41,118.41,0,0,1-26.74-48.68C937.72,440.05,937.36,421.63,941.63,405Z" transform="translate(0.73 9.48)"/><path class="cls-1" d="M935.23,682.32a38.93,38.93,0,0,0,27-4.58,31.62,31.62,0,0,0,5-3.68,29.56,29.56,0,0,0,4.08-4.38,30.54,30.54,0,0,0,3.14-4.92,31.66,31.66,0,0,0,2.18-5.25A30,30,0,0,0,978.07,649c-.17-3.19-1-7.08-2-12.19a86.18,86.18,0,0,1-1.25-8.58,50.21,50.21,0,0,1-.2-5.18,45.94,45.94,0,0,1,.42-5.52,38.59,38.59,0,0,1,1.21-5.79,36.26,36.26,0,0,1,2.31-6.05l.8-1.54c.3-.53.63-1.06,1-1.59a32,32,0,0,1,7.52-8.28c.79-.57,1.6-1.13,2.43-1.67s1.71-1,2.59-1.46,1.91-.88,2.74-1.24,1.71-.62,2.58-.91a47,47,0,0,1,9.16-1.83c5.39-.54,9.43-.5,12-.84a17,17,0,0,0,2.71-.52,16.09,16.09,0,0,0,2.46-.95,21.31,21.31,0,0,0,5.11-3.55A35.6,35.6,0,0,0,1038,568.7a54.89,54.89,0,0,0,2.55-8.46c.33-1.51.62-3.07.87-4.67.14-.79.23-1.61.35-2.42.06-.41.11-.82.15-1.24l.07-.62,0-.31c0-.12,0-.14,0-.47.06-1.72.06-3.32.1-5s0-3.25,0-4.83c-.09-3.14-.18-6.28-.28-9.4-.19-6.11-.32-11.78-.36-17l.51,0a5.21,5.21,0,0,1,.69.24l1.41.53,2.78,1.07,5.42,2.09q5.32,2.08,10.21,4.06t9.32,3.88l4.31,1.86,1,.46.51.22.37.19,1.49.75c8,4,15.75,8.15,23.48,12.46q-13.24-.72-26.5-2l-1.67-.17-.41,0h-.82l-2,0c-1.28,0-2.41.1-3.4.19s-1.87.22-2.61.36c-.37.07-.71.15-1,.23l-.44.13-.21.06s-.09,0-.08.07l.09.25c.79,2.24,1.5,4.07,2.11,5.56.3.75.59,1.4.85,2l.37.82.18.36.08.17,0,.09,0,0,0,0a78.83,78.83,0,0,1-1,26.76,61,61,0,0,1-5.09,14,57,57,0,0,1-8.82,12.77,49.91,49.91,0,0,1-13.17,10.29c-1.26.71-2.64,1.28-4,1.89s-2.81,1-4.22,1.52-2.92.76-4.39,1.1-2.86.48-4.15.62c-2.78.3-5.21.39-7.31.46s-3.84.1-5.2.2-2.3.23-2.79.31c-.1,0-.26,0-.29.05s0-.07,0,0l-.05,0s0,0-.07,0-.13,0-.2,0-.08,0-.11,0h-.07l-.12.13a7.24,7.24,0,0,0-1.24,2.56,16.62,16.62,0,0,0-.49,2,21.85,21.85,0,0,0-.31,2.4c-.13,1.88-.14,4-.11,6.52s.11,5.23,0,8.23c0,1.5-.13,3.09-.28,4.7s-.43,3.33-.71,5a49.2,49.2,0,0,1-7.51,17.94,47.34,47.34,0,0,1-6,7.25,44.85,44.85,0,0,1-7.18,5.84,42.79,42.79,0,0,1-16.59,6.55C954.67,691.27,943.31,688.41,935.23,682.32Z" transform="translate(0.73 9.48)"/><path class="cls-1" d="M1425.3,1080.58a61.72,61.72,0,0,0-16-23.47,87.09,87.09,0,0,0-23.17-15,113.63,113.63,0,0,0-26.24-7.67,147.8,147.8,0,0,0-27.31-1.79c-18.28.57-36.67,4.27-55.4,9s-37.94,10.56-58.39,14.95a270.41,270.41,0,0,1-31.19,4.92,166.23,166.23,0,0,1-32.55,0,133.9,133.9,0,0,1-32.2-7.31,124.13,124.13,0,0,1-29.12-15.2,91.12,91.12,0,0,1-12.78-11,69.92,69.92,0,0,1-10.38-13.78,55.3,55.3,0,0,1-6.19-16.26,60.82,60.82,0,0,1-1.07-16.78,78,78,0,0,1,3.08-15.66,110.86,110.86,0,0,1,5.63-14.21c2.18-4.53,4.59-8.86,7.1-13.09s5.18-8.32,7.89-12.38c-1.5,4.65-3,9.32-4.31,14s-2.52,9.34-3.5,14a119.22,119.22,0,0,0-2,13.9,70.49,70.49,0,0,0,.35,13.37,47.09,47.09,0,0,0,3.34,12.06,38.67,38.67,0,0,0,6.33,10.14c5.18,6.12,12.07,11,19.73,15a114.18,114.18,0,0,0,24.63,9,124.79,124.79,0,0,0,26,3.41c17.68.56,36-2.5,54.8-6.54s38.38-9.26,58.69-12.9,41.6-5.73,63-3.31a144.25,144.25,0,0,1,31.19,7.16,114.87,114.87,0,0,1,28.22,14.66,88.8,88.8,0,0,1,21.73,22.47A61.22,61.22,0,0,1,1425.3,1080.58Z" transform="translate(0.73 9.48)"/><path class="cls-1" d="M1173.55,1043.09a26.87,26.87,0,0,1,9.55-13.15,37.53,37.53,0,0,1,15.93-6.89,43.48,43.48,0,0,1,17.63.37c.73.17,1.46.34,2.19.53l2.16.68a37.84,37.84,0,0,1,4.11,1.57,51.55,51.55,0,0,1,7.49,4,56.67,56.67,0,0,1,12,10.44,64.17,64.17,0,0,1,8.27,12.25,88.34,88.34,0,0,1,5.56,13.27,125.83,125.83,0,0,1,3.89,14.43,127.79,127.79,0,0,1-14.25-4.64,138.09,138.09,0,0,1-12.8-5.9c-4-2.07-7.65-4.19-11.06-6.23s-6.54-4-9.49-5.88l-8.32-5.32a93.37,93.37,0,0,0-8.72-4.9,52.22,52.22,0,0,0-10.52-4A33.25,33.25,0,0,0,1173.55,1043.09Z" transform="translate(0.73 9.48)"/><path class="cls-1" d="M1707.55-4.42q-5.35,15.86-8.93,31.42c-2.42,10.37-4.19,20.68-5.56,30.89-.39,2.54-.61,5.11-.93,7.64s-.49,5.09-.76,7.61c-.38,5.08-.78,10.12-.94,15.17l-.15,3.77-.07,3.78c-.1,2.51,0,5,0,7.53v.93l0,.82,0,1.64c0,1.1.14,2.2.2,3.3s.19,2.2.32,3.31l.17,1.65.26,1.66a107.49,107.49,0,0,0,7.22,25.88,106.1,106.1,0,0,0,13.67,23.83,86,86,0,0,0,20.71,19.45,78.89,78.89,0,0,0,28.86,11.42,67.06,67.06,0,0,1-34.31,3.38,80.13,80.13,0,0,1-33.93-14.48A95,95,0,0,1,1668,158.1a98.07,98.07,0,0,1-13-36.44c-.12-.82-.26-1.63-.35-2.45l-.24-2.48-.22-2.48-.1-2.49c-.07-1.66-.13-3.32-.06-5s0-3.42.19-4.85c.24-3,.44-6,.87-9l.59-4.46.78-4.43a160,160,0,0,1,4.23-17.34,157.13,157.13,0,0,1,6.19-16.56,150.38,150.38,0,0,1,17.45-30A147.76,147.76,0,0,1,1707.55-4.42Z" transform="translate(0.73 9.48)"/><path class="cls-1" d="M1856.3-4.42a22.25,22.25,0,0,1,1.11,2.67,16,16,0,0,1,.63,3,21.62,21.62,0,0,1-.2,6.31,44.14,44.14,0,0,1-4.06,11.77c-1.74,3.58-3.63,6.86-5.21,9.86-.8,1.5-1.5,2.92-2.06,4.24-.13.32-.29.66-.39,1l-.17.46a1.17,1.17,0,0,0,0,.29,8,8,0,0,0,.1.9,3.57,3.57,0,0,0,1.36,2.36,2.5,2.5,0,0,0,1.77.51l.31-.07.13-.05c.05,0,.1,0,0-.13s.12,0,.39.17l.79.42,1.79,1a97.56,97.56,0,0,1,10.11,6c.48.33,1,.75,1.52,1.12s1,.74,1.53,1.2a40.92,40.92,0,0,1,3.17,2.86,37.13,37.13,0,0,1,3,3.3l1.36,1.75c.43.59.82,1.2,1.22,1.81a43.56,43.56,0,0,1,6.13,15.25,47,47,0,0,1,.52,14.9,50,50,0,0,1-3.62,13.53,57.26,57.26,0,0,1-14.73,19.9,104.14,104.14,0,0,1-18.57,12.76c1.75-7.27,3.75-14.35,5.12-21,.68-3.32,1.21-6.52,1.52-9.56.17-1.52.25-3,.3-4.43a36.16,36.16,0,0,0-.07-4.08,33.45,33.45,0,0,0-3.41-13,16.38,16.38,0,0,0-2.68-3.75,6.25,6.25,0,0,0-.65-.62c-.18-.23-.45-.34-.64-.54l-.15-.14-.23-.16-.44-.35-.6-.42c-.2-.14-.37-.28-.65-.46-1.92-1.33-4.69-3-8.11-5.34l-1.32-.92-.66-.48-.71-.53-1.41-1.07-1.86-1.51c-.77-.62-1.33-1.17-2-1.78s-1.22-1.21-1.81-1.83-1.12-1.29-1.66-1.94a24.23,24.23,0,0,1-1.52-2,30.64,30.64,0,0,1-4.25-8.93c-.26-.77-.38-1.58-.57-2.37a19.52,19.52,0,0,1-.44-2.38c-.08-.81-.18-1.61-.2-2.41s0-1.61,0-2.4a28.8,28.8,0,0,1,2.06-9.25,32,32,0,0,1,4.75-8,43.58,43.58,0,0,1,3.06-3.42c.25-.24.53-.51.75-.7l.65-.57c.43-.37.86-.69,1.29-1a56.8,56.8,0,0,1,5-3.45c3.28-2,6.4-3.56,9.36-5.1a55.17,55.17,0,0,0,8.22-5A16.91,16.91,0,0,0,1856.3-4.42Z" transform="translate(0.73 9.48)"/><path class="cls-1" d="M1599.7,336.62a48.12,48.12,0,0,1-6.59,2.49,16.61,16.61,0,0,1-7.4.51,12.23,12.23,0,0,1-7-3.91,9.54,9.54,0,0,1-2-4,9.32,9.32,0,0,1,.12-4.69,12.85,12.85,0,0,1,5.42-7,21.55,21.55,0,0,1,7.8-2.87c2.58-.46,4.94-.68,7.35-.91s4.77-.37,7.12-.53c4.7-.3,9.28-.61,13.68-1.23a62.28,62.28,0,0,0,6.42-1.23,41.7,41.7,0,0,0,5.91-1.94,31.33,31.33,0,0,0,10-6.44,18.43,18.43,0,0,0,5.17-9.23,13.57,13.57,0,0,0-1.51-9.53,26.45,26.45,0,0,0-7.84-8.3,51.93,51.93,0,0,0-11.14-6,57.52,57.52,0,0,0-12.38-3.43,37.58,37.58,0,0,0-6.2-.45c-2,0-4.3.33-6.69.55a39.05,39.05,0,0,1-7.61.14,18.8,18.8,0,0,1-7.75-2.44,11.81,11.81,0,0,1-5.38-6.42,11.11,11.11,0,0,1,.4-8,9.83,9.83,0,0,1,12.5-5.15,9.05,9.05,0,0,0-6.4,1.27,7.76,7.76,0,0,0-3.51,4.83,7.89,7.89,0,0,0,.74,5.54,7.53,7.53,0,0,0,4.05,3.33,14,14,0,0,0,5.66.78,37.49,37.49,0,0,0,6.25-1.06c2.21-.51,4.52-1.13,7.14-1.49a42.41,42.41,0,0,1,7.77-.32,60.18,60.18,0,0,1,15,2.67,57.17,57.17,0,0,1,14.08,6.44,36.27,36.27,0,0,1,11.75,11.85,24.92,24.92,0,0,1,2.8,17.91,28.47,28.47,0,0,1-3.33,8.38,31.7,31.7,0,0,1-5.53,6.8,41,41,0,0,1-14.16,8.33,50.46,50.46,0,0,1-7.71,2,66.55,66.55,0,0,1-7.59.86c-5,.28-9.84.13-14.54-.07l-7-.27c-2.28-.06-4.61-.12-6.67,0a15.58,15.58,0,0,0-5.54,1.14,7.33,7.33,0,0,0-3.58,3.31,4.67,4.67,0,0,0,.3,4.54,9.08,9.08,0,0,0,4.48,3.61,15,15,0,0,0,6.4.75A52.46,52.46,0,0,0,1599.7,336.62Z" transform="translate(0.73 9.48)"/><path class="cls-1" d="M1641.79,283.81a40.73,40.73,0,0,0,14.49,6.78,40.2,40.2,0,0,0,7.54,1.13l1.87,0h.84l.21-.09a1.19,1.19,0,0,0,.56-.41c0-.19-.07-.34-.1-.46l-.06-.17a.19.19,0,0,1,0-.08l0,0s0-.18.05-.26a43.34,43.34,0,0,1,1.34-5.43,26.87,26.87,0,0,1,2.52-5.75,18.67,18.67,0,0,1,4.76-5.45,18,18,0,0,1,9.14-3.56,25.41,25.41,0,0,1,4.6.07,18.34,18.34,0,0,1,4.55,1.17,19.32,19.32,0,0,1,7.39,5.21,18,18,0,0,1,4,7.87,20.59,20.59,0,0,1,.17,8.07,25,25,0,0,1-2.35,7.08,50,50,0,0,1-8.09,11,78.43,78.43,0,0,0,3.16-12.62c.53-4,.08-8-1.41-10.85a9.72,9.72,0,0,0-2.81-3.39,10.5,10.5,0,0,0-3.82-1.82,8.59,8.59,0,0,0-2-.25c-.59,0-1.41.12-2.1.17a7,7,0,0,0-3.2,1.37,13.82,13.82,0,0,0-3.67,5.63c-.54,1.28-1,2.71-1.51,4.18q-1.2,4.35-2.37,8.62c-1.31,0-2.66-.07-4-.1l-3.82-.23q-.95-.08-1.89-.24l-.24,0-.15,0-.3-.06-.58-.12-2.3-.6a36,36,0,0,1-8.45-3.79A33.27,33.27,0,0,1,1641.79,283.81Z" transform="translate(0.73 9.48)"/><path class="cls-1" d="M511.55,110.67a14.89,14.89,0,0,1-12.11,8.61,14.14,14.14,0,0,1-2.06,0,14.94,14.94,0,0,1-2.31-.3,16.11,16.11,0,0,1-4.51-1.7,16.34,16.34,0,0,1-3.79-2.91c-.57-.57-1.12-1.16-1.67-1.81l-.41-.48-.1-.12v-.28c0-.26,0-.51.05-.76l6.75-5.15.88-.7.76-.62,1.14-1c.77-.64,1.5-1.31,2.26-2,3-2.64,5.9-5.35,8.71-8.16a149.69,149.69,0,0,0,15.47-18c1.17-1.59,2.25-3.22,3.33-4.86l1.57-2.48c.23-.38.36-.67.55-1l.44-1a9.88,9.88,0,0,0,.68-3.79,10.47,10.47,0,0,0-1-3.78,19.73,19.73,0,0,0-6.1-7.11A30.74,30.74,0,0,0,511,46.78c-1-.32-2.21-.56-3.32-.82s-2.28-.41-3.45-.51a44.17,44.17,0,0,0-7.11-.2,74.34,74.34,0,0,0-14.67,2.29c-9.85,2.4-19.75,6.38-30.31,9.27a91.58,91.58,0,0,1-16.26,3.09,51.22,51.22,0,0,1-16.72-1c-5.46-1.33-10.81-4-14.46-8.36a20.73,20.73,0,0,1-4-7.19,16,16,0,0,1-.5-7.93,17.36,17.36,0,0,0,6.51,13.2,24.25,24.25,0,0,0,13.45,5.2,49.48,49.48,0,0,0,14.81-1.11,98.72,98.72,0,0,0,14.6-4.47c4.83-1.83,9.67-3.92,14.65-6a155.78,155.78,0,0,1,15.55-5.65,81.79,81.79,0,0,1,8.3-2,63.61,63.61,0,0,1,8.71-1.15c1.48-.12,3-.11,4.48-.13s3,.09,4.54.28,3,.41,4.56.67,3,.66,4.54,1.16a40,40,0,0,1,12.83,6.82A29.81,29.81,0,0,1,537,54.34a21.21,21.21,0,0,1,1.48,8.31,20.55,20.55,0,0,1-2,8.17c-.32.6-.61,1.22-1,1.78l-.53.84-.26.42-.24.33-1.89,2.63c-1.31,1.72-2.62,3.42-4,5.05a130.29,130.29,0,0,1-18.16,17.57c-3.24,2.61-6.59,5-10,7.35-.85.57-1.7,1.16-2.56,1.71l-1.3.83a3.35,3.35,0,0,1-.45.26l-.34.19-3.25,1.74-.59.32-.15.08-.07,0,0,.06.11.23a6.43,6.43,0,0,0,.58.92,7.83,7.83,0,0,0,1.66,1.64,9.62,9.62,0,0,0,2.27,1.22,9.25,9.25,0,0,0,1.37.41,10.33,10.33,0,0,0,1.67.23A13.85,13.85,0,0,0,511.55,110.67Z" transform="translate(0.73 9.48)"/><path class="cls-1" d="M468.12,69.92a34.54,34.54,0,0,1-13.68-42.66c4.72,6.91,8.19,13.27,10.39,20.14S467.94,61.53,468.12,69.92Z" transform="translate(0.73 9.48)"/><path class="cls-1" d="M841.25,768.72a31.35,31.35,0,0,0,3.06,5.75,32.91,32.91,0,0,0,4.18,4.94,46.71,46.71,0,0,0,10.39,7.6,58.47,58.47,0,0,0,5.79,2.83l6.07,2.59c4,1.74,8,3.43,12.11,4.88a67.19,67.19,0,0,0,12.3,3.27c4.07.6,8.22.6,11.56-.75a12.71,12.71,0,0,0,2.35-1.21c.37-.25.75-.56,1.13-.82l1.07-.92a21.51,21.51,0,0,0,3.62-4.41,32.86,32.86,0,0,0,4.18-11.11,48,48,0,0,0,.75-12.22,42.8,42.8,0,0,0-2.37-11.8,30.6,30.6,0,0,0-5.89-9.85,18.08,18.08,0,0,0-8.77-5.44,13,13,0,0,0-9.35,1.4,23.42,23.42,0,0,0-4.4,3.19,41.6,41.6,0,0,0-4,4.25,38,38,0,0,0-8.42,21.56l-11.47-1.6a36.07,36.07,0,0,0,.39-9.77,29.61,29.61,0,0,0-2.24-9.37,10.93,10.93,0,0,0-2.08-3.2,4.59,4.59,0,0,0-2.21-1.33,6.83,6.83,0,0,0-3.1.13,11.53,11.53,0,0,0-3.58,1.51c-3,1.87-5.1,5.44-5.9,9.56a19.78,19.78,0,0,0,1.41,12.16c.23.43.45.86.71,1.26a5.94,5.94,0,0,0,.38.59c.15.2.24.36.46.63.8,1,1.53,2,2.36,3,1.64,1.92,3.35,3.79,5.17,5.58a106.91,106.91,0,0,0,11.74,10,132.66,132.66,0,0,0,27.07,15.19c4.81,2,10.12,3.9,15.31,6.88a36.51,36.51,0,0,1,7.41,5.54,28.45,28.45,0,0,1,5.6,7.76,24.6,24.6,0,0,1,1.66,4.69,21.09,21.09,0,0,1,.54,5.1,18.14,18.14,0,0,1-3.22,9.77,21.76,21.76,0,0,1-7.24,6.51,27,27,0,0,1-8.79,3,30.33,30.33,0,0,1-9,0,45.81,45.81,0,0,1-8.34-2.06c-5.32-1.81-10.18-4.25-15-6.37a55.63,55.63,0,0,0-14.55-4.69,26,26,0,0,0-3.7-.27,15,15,0,0,0-3.57.4,15.38,15.38,0,0,0-6.48,3,8.64,8.64,0,0,0-2.21,2.66,6.57,6.57,0,0,0-.84,3.28,8.65,8.65,0,0,0,3,6.32,15.09,15.09,0,0,0,6.74,3.47,49.38,49.38,0,0,0,7.8,1.14,49.6,49.6,0,0,1-8-.43,16,16,0,0,1-7.53-3.13,11.91,11.91,0,0,1-2.83-3.16,9.15,9.15,0,0,1-1.33-4.19,9.54,9.54,0,0,1,.09-2.26,9.68,9.68,0,0,1,.68-2.16,11.5,11.5,0,0,1,2.57-3.64,18.45,18.45,0,0,1,7.52-4.26,19.32,19.32,0,0,1,4.3-.8,30.26,30.26,0,0,1,4.26,0c5.66.38,11,2.09,16.12,3.92s10,3.9,14.88,5.2a39.56,39.56,0,0,0,7.3,1.29,23.39,23.39,0,0,0,7-.42c4.38-1,8.53-3.62,10.47-7.05a12,12,0,0,0,.65-1.29,10.41,10.41,0,0,0,.42-1.34,9.32,9.32,0,0,0,.27-2.79,12.87,12.87,0,0,0-1.75-5.7,20,20,0,0,0-4.13-5,29.09,29.09,0,0,0-5.75-3.79c-4.3-2.21-9.28-3.79-14.52-5.77a137.29,137.29,0,0,1-29.84-15.75,112.13,112.13,0,0,1-13.26-10.89c-1-1-2-2-3-3.08s-2-2.16-2.93-3.24l-1.39-1.7c-.47-.59-.9-1.08-1.4-1.76a25.08,25.08,0,0,1-2.72-4.53,30.11,30.11,0,0,1-2.65-9.78,31.06,31.06,0,0,1-.11-5,30.09,30.09,0,0,1,.67-5,28.1,28.1,0,0,1,1.5-4.89,25.72,25.72,0,0,1,2.42-4.65,23.85,23.85,0,0,1,7.79-7.55,23,23,0,0,1,7.35-2.8,17.92,17.92,0,0,1,8.72.31,16.65,16.65,0,0,1,7.54,4.84,23.43,23.43,0,0,1,4.13,6.58,41.18,41.18,0,0,1,3,13.13,46.49,46.49,0,0,1-.8,13L865,771.71a48.65,48.65,0,0,1,11.53-27.89,51.84,51.84,0,0,1,5.41-5.38,33.55,33.55,0,0,1,6.66-4.48,24.65,24.65,0,0,1,8.15-2.45,22.29,22.29,0,0,1,8.61.66,27.77,27.77,0,0,1,13.48,8.91,36.49,36.49,0,0,1,4.31,6.38,41.55,41.55,0,0,1,2.94,6.93,50.53,50.53,0,0,1,2.22,14.43,55.31,55.31,0,0,1-1.63,14.26,39.73,39.73,0,0,1-6,13.32,28.2,28.2,0,0,1-5.13,5.52c-.51.38-1,.77-1.53,1.14s-1,.7-1.62,1a18.4,18.4,0,0,1-3.65,1.6,22.53,22.53,0,0,1-7.5,1,36.68,36.68,0,0,1-7.1-.9,70,70,0,0,1-12.94-4.43c-4.11-1.81-8.06-3.85-12-5.91l-5.83-3.06a61,61,0,0,1-5.78-3.43,47.8,47.8,0,0,1-10-8.76,34.13,34.13,0,0,1-3.82-5.44A30.65,30.65,0,0,1,841.25,768.72Z" transform="translate(0.73 9.48)"/><path class="cls-1" d="M783.69,386.89a25.69,25.69,0,0,1-8.08.18,28.08,28.08,0,0,1-8-2.41c-.32-.15-.65-.29-1-.45l-.92-.51c-.61-.36-1.25-.69-1.85-1.08a36.73,36.73,0,0,1-3.44-2.54,35.57,35.57,0,0,1-6-6.28,38.59,38.59,0,0,1-4.45-7.67,39.1,39.1,0,0,1-2.45-8.73,46.19,46.19,0,0,1,.87-17.95c2.83-11.71,9.47-22.25,17.89-30.52s18.09-14.61,27.7-20.14c4.78-2.73,9.46-5.3,14.32-7.85s9.82-5,15-7.16c10.27-4.35,21.41-7.74,33-8.23a53.89,53.89,0,0,1,17.4,1.79,37.89,37.89,0,0,1,8.27,3.42,29.25,29.25,0,0,1,7.1,5.56,22.16,22.16,0,0,1,2.78,3.64,16.19,16.19,0,0,1,1.09,2,17.64,17.64,0,0,1,.87,2.06,23.26,23.26,0,0,1,1.39,8.56,19.37,19.37,0,0,1-2,8.18,14.21,14.21,0,0,1-5.41,5.93,13.73,13.73,0,0,0,3.66-6.61,17.36,17.36,0,0,0,.09-7.28,19.34,19.34,0,0,0-2.56-6.58,17,17,0,0,0-2.07-2.71,18.39,18.39,0,0,0-2.51-2.2,26.67,26.67,0,0,0-12.8-4.66,48.67,48.67,0,0,0-14.26.61c-9.64,1.66-18.93,5.46-28.08,10-4.59,2.3-9.15,4.82-13.75,7.42l-13.91,7.94c-9.2,5.31-17.93,10.7-25.3,17.22-1.87,1.61-3.58,3.34-5.23,5.07a67.32,67.32,0,0,0-4.57,5.55,52.54,52.54,0,0,0-6.8,12.47c-.45,1.1-.75,2.22-1.12,3.34s-.62,2.26-.79,3.41a35.39,35.39,0,0,0-.68,7l0,1.75c0,.58.11,1.13.16,1.71l.08.85c0,.29.11.57.16.85l.32,1.72a33.86,33.86,0,0,0,2.44,6.67,32,32,0,0,0,3.91,6.13,35.44,35.44,0,0,0,2.47,2.75c.44.43.91.82,1.37,1.24l.7.62.75.56a26.53,26.53,0,0,0,6.55,3.71A26,26,0,0,0,783.69,386.89Z" transform="translate(0.73 9.48)"/><path class="cls-1" d="M837.69,273.3c-4.7,4.13-9.34,8.31-14.22,12.28s-9.92,7.8-15.23,11.35a146.1,146.1,0,0,1-16.75,9.73,99.63,99.63,0,0,1-18.77,7.13,57.08,57.08,0,0,1-21.11,1.83,34.88,34.88,0,0,1-11.08-3.18,30.28,30.28,0,0,1-5-3.17,27.36,27.36,0,0,1-4.2-4.13,29.78,29.78,0,0,1-5.26-9.71c-.15-.4-.28-.88-.41-1.35s-.26-.92-.36-1.39a24.66,24.66,0,0,1-.4-2.79,23.09,23.09,0,0,1,.18-5.46,21.7,21.7,0,0,1,3.93-9.6,16.17,16.17,0,0,1,7.72-5.8,15.55,15.55,0,0,0-4.48,7.47,18.79,18.79,0,0,0-.35,8.08,18.12,18.12,0,0,0,1.07,3.67c.21.59.53,1.12.78,1.66l.47.76c.15.24.31.5.51.78a22.68,22.68,0,0,0,5.06,5.51c3.72,2.83,8.06,3.91,13.11,3.93a63.19,63.19,0,0,0,16-2.45c5.58-1.47,11.22-3.39,16.87-5.46s11.33-4.29,17-6.55,11.44-4.57,17.24-6.81S831.71,275.17,837.69,273.3Z" transform="translate(0.73 9.48)"/><path class="cls-1" d="M73.82,752.22a23.29,23.29,0,0,1,3.57-7.56,25.65,25.65,0,0,1,6.16-6A24.66,24.66,0,0,1,91.64,735a23.89,23.89,0,0,1,9.12-.39A26.87,26.87,0,0,1,117,743.49a25.9,25.9,0,0,1,4.9,8.4,31.28,31.28,0,0,1,1.76,9.5,36.35,36.35,0,0,1-1,9.53,39.94,39.94,0,0,1-1.41,4.6,45.29,45.29,0,0,1-1.93,4.33,58,58,0,0,1-11.12,14.74A97,97,0,0,1,78.3,814.34a99.05,99.05,0,0,1-17,5.42c-1.45.32-2.91.59-4.37.86l-2.2.34-1.1.17-1.18.14a37.37,37.37,0,0,1-9.84-.11,24,24,0,0,1-10-3.84,21.6,21.6,0,0,1-7.07-8.21,29.94,29.94,0,0,1-2.8-9.52,47.42,47.42,0,0,1-.2-9.2,65.86,65.86,0,0,1,1.29-8.75c.6-2.79,1.23-5.41,1.85-8.12q1.88-8.06,3.84-16.06l.49-2,.36-1.26.78-2.74.86-3.15.23-.85.12-.44v0h0l-.08,0-.17,0a7.66,7.66,0,0,0-1.37-.18,9.91,9.91,0,0,0-5.86,1.81,12.71,12.71,0,0,0-4.61,5.9,14,14,0,0,1,4.21-7.5,15.77,15.77,0,0,1,8.29-4c.79-.11,1.58-.21,2.41-.25h.46s0,.07,0,.1v1.49c0,1.34.06,2.68.13,4-.15,1.65-.4,3.49-.61,5.34l-.34,2.77-.21,2.06q-.87,8.22-1.82,16.46l-1,8.19a61.44,61.44,0,0,0-.36,7.75c.11,5,1,10,3.18,13.56s5.34,5.26,9.68,5.68a27.49,27.49,0,0,0,6.89-.3c.58-.07,1.24-.2,1.89-.32l1.94-.37c1.28-.3,2.58-.54,3.85-.88A99.21,99.21,0,0,0,88,795.76a94,94,0,0,0,12.62-9.52,50.46,50.46,0,0,0,9.73-11.51,31.72,31.72,0,0,0,3-6.56,28.47,28.47,0,0,0,1.32-7,20.92,20.92,0,0,0-3.46-13.25,21.31,21.31,0,0,0-11.58-8.18,19.77,19.77,0,0,0-7.35-.71,22,22,0,0,0-7.35,2.05,24.28,24.28,0,0,0-6.45,4.53A23.34,23.34,0,0,0,73.82,752.22Z" transform="translate(0.73 9.48)"/><path class="cls-1" d="M617.6,919a16.51,16.51,0,0,0,11.78-12.76c1.14-5.71-2-11.27-6.42-14.15a12.43,12.43,0,0,0-7.17-2.1,14.72,14.72,0,0,0-7.17,2.15,27,27,0,0,0-6.26,5.33,61.17,61.17,0,0,0-5.4,7.09c-.85,1.27-1.67,2.58-2.48,3.92L592,912.59c-1.7,2.77-3.4,5.56-5.1,8.34q-5.13,8.33-10.37,16.64t-10.6,16.57l-5.4,8.27c-1.77,2.7-3.7,5.64-5.8,8.46a77.68,77.68,0,0,1-7,8.22,45.23,45.23,0,0,1-9.06,7.2,29.41,29.41,0,0,1-12,4.05l-1.64.15c-.55,0-1.1,0-1.64,0l-1.64-.05c-.55,0-1.11-.14-1.66-.22a25.39,25.39,0,0,1-3.25-.7,31.29,31.29,0,0,1-3.08-1.12,29.51,29.51,0,0,1-10-7.3,35.14,35.14,0,0,1-6.32-9.87,38,38,0,0,1-1.87-5.49,43,43,0,0,1-1-5.48,55.57,55.57,0,0,1-.16-10.69,133.85,133.85,0,0,1,3.44-19.64,117.59,117.59,0,0,0,3.11-18.29,46.24,46.24,0,0,0-.28-9,16.67,16.67,0,0,0-3-7.84,7.85,7.85,0,0,0-3.16-2.42,5.23,5.23,0,0,0-3.84.12,6.94,6.94,0,0,0-3.31,2.73,4.32,4.32,0,0,0-.68,2.12,3.9,3.9,0,0,0,.59,2.17,4.24,4.24,0,0,1-1-2.23,5.07,5.07,0,0,1,.33-2.46,8.17,8.17,0,0,1,3.32-3.88,7.35,7.35,0,0,1,5.37-1,10.63,10.63,0,0,1,4.84,2.57,16.18,16.18,0,0,1,3.29,4.26,24.38,24.38,0,0,1,2,4.85,48.48,48.48,0,0,1,1.79,10,107.91,107.91,0,0,1-.76,19.85,146.91,146.91,0,0,0-1.25,18.58,46.56,46.56,0,0,0,.92,8.56,31.73,31.73,0,0,0,1.09,4l.32.91.39.89c.23.61.56,1.17.84,1.75a24.19,24.19,0,0,0,4.57,6.08,17,17,0,0,0,5.8,3.69,12.22,12.22,0,0,0,3,.64,10.22,10.22,0,0,0,1.57,0,9.17,9.17,0,0,0,1.57-.15,16.3,16.3,0,0,0,6.24-2.51c4.19-2.68,8.11-7.12,11.71-12,1.82-2.47,3.53-5.06,5.4-7.83l5.52-8.15q5.54-8.13,11.15-16.15t11.3-16l5.7-7.9c1.89-2.59,3.85-5.34,6-8a65.53,65.53,0,0,1,7.21-7.66,34.58,34.58,0,0,1,9.31-6.1,22.59,22.59,0,0,1,11.53-1.78,19,19,0,0,1,5.72,1.62,20.71,20.71,0,0,1,4.8,3.17,20.29,20.29,0,0,1,3.65,4.26,18.77,18.77,0,0,1,2.32,5,16.86,16.86,0,0,1-.27,10.73C630.18,913.79,624,918.55,617.6,919Z" transform="translate(0.73 9.48)"/><path class="cls-1" d="M1385.56,586a25.68,25.68,0,0,0,17.37,2.32,34.76,34.76,0,0,0,8.13-2.67c.63-.31,1.26-.63,1.88-1s1.21-.68,1.81-1.08a40,40,0,0,0,3.5-2.45,78,78,0,0,0,12.36-12.46c3.84-4.67,7.52-9.73,11.68-14.79a88.13,88.13,0,0,1,14.1-14.15,56,56,0,0,1,8.72-5.49,57.34,57.34,0,0,1,9.47-3.7,53.63,53.63,0,0,1,37.92,2.94,61.36,61.36,0,0,0-42.37,9.71,59.17,59.17,0,0,0-6.68,5.26,124.21,124.21,0,0,0-12,13.19c-3.93,4.81-7.94,9.88-12.55,14.65A65.94,65.94,0,0,1,1423,588.79a46.12,46.12,0,0,1-4.67,2.18c-.79.33-1.64.59-2.46.89s-1.66.49-2.5.7a36.44,36.44,0,0,1-10.16,1C1396.48,593.26,1389.83,590.59,1385.56,586Z" transform="translate(0.73 9.48)"/><path class="cls-1" d="M1366.86,547.26c-1.2-4.1-2.44-8.31-2.29-12.93a18.14,18.14,0,0,1,.45-3.47,15.22,15.22,0,0,1,1.24-3.44,14.9,14.9,0,0,1,4.93-5.73,11.65,11.65,0,0,1,8.13-1.93,15.67,15.67,0,0,1,7.44,3.43,47.28,47.28,0,0,1,5.1,4.93c.77.84,1.4,1.52,2.08,2.15A21.06,21.06,0,0,0,1396,532a7.53,7.53,0,0,0,3.69,1.6,2.26,2.26,0,0,0,1.89-.77,6.09,6.09,0,0,0,1.2-3,12.36,12.36,0,0,0-.09-4.41c-.33-1.67-.93-3.63-1.56-5.78a41,41,0,0,1-1.58-7.44,22,22,0,0,1,0-4.45,23.37,23.37,0,0,1,.4-2.39c.22-.77.43-1.57.72-2.31a20.47,20.47,0,0,1,5.28-7.65,21.2,21.2,0,0,1,7.88-4.51c.74-.23,1.51-.39,2.27-.56a23.32,23.32,0,0,1,2.36-.26,16,16,0,0,1,2.4,0c.4,0,.82.06,1.2.12l1.13.2a26.12,26.12,0,0,1,7.72,3.08c2.18,1.27,4,2.6,5.75,3.76a29.4,29.4,0,0,0,4.67,2.78,13.28,13.28,0,0,0,4.29,1.21,4.69,4.69,0,0,0,3-.66,3.79,3.79,0,0,0,1.14-1.06,6,6,0,0,0,.9-1.74,16.35,16.35,0,0,0,.8-5c0-.94,0-1.89-.07-2.87,0-.49-.08-1-.12-1.48l-.17-1.63a51.25,51.25,0,0,1-.29-6.87,19.53,19.53,0,0,1,1.55-7.29,12.24,12.24,0,0,1,2.12-3.3A11.44,11.44,0,0,1,1456,468a4,4,0,0,1,.84-.57l.87-.5a11.29,11.29,0,0,1,7.37-.68,12.08,12.08,0,0,1,6,3.35,8.71,8.71,0,0,1,2.57,5.94,8.14,8.14,0,0,0-3.5-4.86,10.32,10.32,0,0,0-5.5-1.69,7.92,7.92,0,0,0-5,1.44,6.27,6.27,0,0,0-1.52,1.79,7.7,7.7,0,0,0-.92,2.3c-.77,3.28,0,7.18,1,11.21l.39,1.55c.13.56.27,1.12.38,1.7.24,1.15.42,2.33.56,3.54a23.66,23.66,0,0,1-.34,7.8,14.36,14.36,0,0,1-4.74,8,13.32,13.32,0,0,1-4.36,2.45,16,16,0,0,1-4.7.81,22.61,22.61,0,0,1-8.29-1.51,28.54,28.54,0,0,1-3.6-1.61c-1.17-.61-2.14-1.19-3.11-1.77-1.94-1.17-3.67-2.26-5.29-3.08a14.21,14.21,0,0,0-4.36-1.55,8.1,8.1,0,0,0-1.76-.06,8.58,8.58,0,0,0-1.79.42,9.34,9.34,0,0,0-3.35,2,9.14,9.14,0,0,0-2.14,3.11c-.06.29-.2.55-.24.83a6.33,6.33,0,0,0-.16.88,10.9,10.9,0,0,0,0,2.15,35.82,35.82,0,0,0,1,5.5,63.2,63.2,0,0,1,1.46,7,21.37,21.37,0,0,1,.12,4.3,20.2,20.2,0,0,1-.7,4.29,15.57,15.57,0,0,1-5.13,8.25,12.38,12.38,0,0,1-10.31,2.33,17.11,17.11,0,0,1-7.67-4.31,29.4,29.4,0,0,1-2.61-2.78c-.39-.48-.77-1-1.13-1.46l-1-1.34a43.69,43.69,0,0,0-3.6-4.63,9.22,9.22,0,0,0-3.8-2.64,6,6,0,0,0-4.3.31,10.71,10.71,0,0,0-4,3.32,13.69,13.69,0,0,0-2.38,5.18C1366.37,538.65,1366.61,543,1366.86,547.26Z" transform="translate(0.73 9.48)"/><path class="cls-1" d="M1369.05,866.06c6.4,5.17,12.78,10.45,19.66,14.51a55.51,55.51,0,0,0,10.63,4.94,38.54,38.54,0,0,0,11,2.1,26,26,0,0,0,10.32-1.59,24.28,24.28,0,0,0,4.51-2.31,21.57,21.57,0,0,0,3.77-3.19,17.73,17.73,0,0,0,2.74-3.81,15,15,0,0,0,1.46-4.21,20.38,20.38,0,0,0-.82-9.53,38.38,38.38,0,0,0-5.52-10.56c-.6-.85-1.24-1.71-1.89-2.56l-.63-.8-1.07-1.3-2.15-2.57-4.3-5c-.7-.82-1.4-1.63-2.09-2.45s-1-1.25-1.51-2l6.74-1,1.65-.26c.54-.08,1-.18,1.43-.27l1.38-.28.69-.14.34-.07.27-.11a5.16,5.16,0,0,0,.93-.54l.19-.14.09-.06.14-.09c.2-.12.37-.3.56-.44a4.12,4.12,0,0,0,.54-.49c.16-.19.36-.34.51-.54a12.29,12.29,0,0,0,1.69-2.59,12.62,12.62,0,0,0,1-3,11.68,11.68,0,0,0,0-3,13.58,13.58,0,0,0-1-3.13,16.41,16.41,0,0,0-1.85-2.94,18.08,18.08,0,0,0-2.61-2.56,19.17,19.17,0,0,0-6.75-3.43,19.43,19.43,0,0,0-3.87-.65,22.06,22.06,0,0,0-4.06.07,34,34,0,0,0-15.79,6.19,33.36,33.36,0,0,1,15-10,25.15,25.15,0,0,1,4.7-1,22.59,22.59,0,0,1,4.94-.08,24.3,24.3,0,0,1,9.67,3,24.69,24.69,0,0,1,4.27,3.08,22.56,22.56,0,0,1,3.54,4.15,21.58,21.58,0,0,1,2.38,5.15,19.43,19.43,0,0,1,.71,5.91,20.69,20.69,0,0,1-3.8,11,14.85,14.85,0,0,1-.93,1.2,10.94,10.94,0,0,1-1,1.14c-.38.36-.72.75-1.13,1.08l-.48.39s0,0,0,.07a3.3,3.3,0,0,1-.22.27s0,0,0,0l.16.1.24.13.09,0h0l.52.61c.78.94,1.57,1.91,2.33,2.92a54.5,54.5,0,0,1,4.28,6.53,39.65,39.65,0,0,1,3.23,7.58,30.22,30.22,0,0,1,.79,15.45,26.09,26.09,0,0,1-3,7.5,27.88,27.88,0,0,1-5,6.06,31.42,31.42,0,0,1-13.06,7.19,31.91,31.91,0,0,1-7.26,1.1,37.07,37.07,0,0,1-7.09-.46,42.93,42.93,0,0,1-12.9-4.37,54.8,54.8,0,0,1-10.77-7.4C1379.13,879.12,1374,872.57,1369.05,866.06Z" transform="translate(0.73 9.48)"/><path class="cls-1" d="M1.44,1061.18c5.34.37,10.42.53,15.29.6s9.56-.06,14.09-.15,8.93-.27,13.25-.44l12.85-.47c7.9-.33,15.82-.53,23.84-.89L86,1081.34c-4.43-.48-9.45-.67-14.57-.79s-10.52-.12-16.14,0A64.13,64.13,0,0,1,67,1068.31a56,56,0,0,1,15.43-8.87L87.57,1081a66,66,0,0,1-46.38,7,64.49,64.49,0,0,1-15.61-5.49A63.68,63.68,0,0,1,12,1073.29,62,62,0,0,1,1.44,1061.18Z" transform="translate(0.73 9.48)"/><path class="cls-1" d="M131.1,1080.58c-.4-5.33-1-10.51-1.8-15.74s-1.26-10.63-1.79-15.89c-1.05-10.53-2-20.92-3.29-31s-3-19.89-5.64-28.65a68.55,68.55,0,0,0-4.8-12,34,34,0,0,0-6.47-8.58,8.34,8.34,0,0,0-.91-.78l-.93-.78c-.8-.52-1.55-1.11-2.35-1.63A48.66,48.66,0,0,0,98,962.73a56.41,56.41,0,0,0-11.73-4A95.64,95.64,0,0,0,59,956.94a149.07,149.07,0,0,0-29,4.87A125.63,125.63,0,0,0,1.44,973.1a92.94,92.94,0,0,1,23.32-22.51A110.3,110.3,0,0,1,55.13,936a89.8,89.8,0,0,1,35.56-3.65A69.91,69.91,0,0,1,109.46,937c1.55.58,3.05,1.37,4.57,2.07s3,1.62,4.45,2.46,2.83,1.84,4.26,2.87l2.19,1.74L126,947c.35.31.68.63,1,1a54.62,54.62,0,0,1,12.23,17.25,76.67,76.67,0,0,1,5.54,18.22,125.74,125.74,0,0,1,.86,34.47,232.39,232.39,0,0,1-5.74,32c-1.25,5.18-2.63,10.29-4,15.38A132,132,0,0,1,131.1,1080.58Z" transform="translate(0.73 9.48)"/><path class="cls-1" d="M136.74,1080.58c1.95-9.75,3.41-19.55,4.48-29.35s1.66-19.63,1.93-29.43.12-19.61-.34-29.36-1.55-19.5-1.95-30-.12-21.67,2.93-33.24a71.27,71.27,0,0,1,6.93-16.92,63,63,0,0,1,11.83-15c1.16-1.15,2.54-2.16,3.83-3.23s2.78-2,4.21-2.91a49.51,49.51,0,0,1,9.52-4.51,46.85,46.85,0,0,1,21.34-2.19,52.19,52.19,0,0,1,19.5,6.72,63.81,63.81,0,0,1,15.21,12.28,67.56,67.56,0,0,1,10.77,15.72l1,2.16.88,2.11c.29.71.6,1.41.86,2.12l.76,2.13c.53,1.42,1,2.85,1.38,4.28s.78,2.86,1.14,4.29c2.74,11.47,3.23,22.66,3.06,33.21-.09,5.28-.36,10.44-.67,15.47s-.61,9.89-.82,14.67c-.42,9.55-.41,18.74.93,27.41.15,1.09.35,2.16.57,3.22s.44,2.13.69,3.18.55,2.08.84,3.11.56,1.92.91,2.83a36.66,36.66,0,0,0,5.88,10.26,30.07,30.07,0,0,0,8.72,7.51,18.37,18.37,0,0,0,4.87,1.81,13.61,13.61,0,0,0,4.93.06,14,14,0,0,0,4.85-1.91,17.53,17.53,0,0,0,4.24-3.84,26.66,26.66,0,0,0,5.15-11.65,46.83,46.83,0,0,0,.17-14c-.57-4.79-1.61-9.62-2.64-14.43a138.48,138.48,0,0,1,6,13.68,49.27,49.27,0,0,1,3.09,15.27,33.77,33.77,0,0,1-3.66,16.27,27.32,27.32,0,0,1-5.45,7.27,25.16,25.16,0,0,1-8.1,5.13,25.72,25.72,0,0,1-9.71,1.73,30.81,30.81,0,0,1-9.49-1.67,44.07,44.07,0,0,1-15.48-9.39,53,53,0,0,1-11-14.13c-.38-.67-.71-1.38-1-2.08s-.59-1.31-.89-2l-.85-2c-.28-.65-.52-1.31-.77-2l-.76-2-.66-2-.65-2-.57-2c-3-10.79-4.08-21.67-4.56-32.08-.24-5.22-.33-10.34-.41-15.36s-.17-9.84-.39-14.59c-.43-9.49-1.41-18.51-3.69-26.58l-.42-1.51-.49-1.47-.49-1.46-.54-1.42c-.34-1-.76-1.87-1.16-2.79s-.83-1.73-1.25-2.55a41.74,41.74,0,0,0-6.5-9.1,37.61,37.61,0,0,0-8.46-6.83,26,26,0,0,0-9.06-3.27,20,20,0,0,0-8.7.63,23.91,23.91,0,0,0-8.47,4.7,38.67,38.67,0,0,0-7.45,8.34,50.65,50.65,0,0,0-5.37,10.65c-2.84,7.8-4.16,16.9-4.93,26.43s-1,19.76-2.11,30a295,295,0,0,1-4.68,30.27,282.34,282.34,0,0,1-7.79,29.3A255.12,255.12,0,0,1,136.74,1080.58Z" transform="translate(0.73 9.48)"/><path class="cls-1" d="M1921.44,758.05a73.16,73.16,0,0,0-12,1.21,45.41,45.41,0,0,0-10.74,3.19c-6.45,3-9.29,7.71-10,14.13a28.45,28.45,0,0,0,.84,9.7,31.72,31.72,0,0,0,1.69,4.77,51.33,51.33,0,0,0,2.5,4.81c3.77,6.37,9.18,12.48,14.33,18.84a99.58,99.58,0,0,1-11.1-5.51,51.65,51.65,0,0,1-10.27-7.81,40.63,40.63,0,0,1-4.39-5.23,32.08,32.08,0,0,1-3.42-6.31,31.11,31.11,0,0,1-2.14-14.54,26,26,0,0,1,1.87-7.55,26.41,26.41,0,0,1,1.8-3.56,24,24,0,0,1,2.46-3.21l.68-.75.75-.68c.5-.44,1-.91,1.53-1.3a22.61,22.61,0,0,1,3.31-2.08,25.57,25.57,0,0,1,7-2.35,37,37,0,0,1,13.34.22A45.57,45.57,0,0,1,1921.44,758.05Z" transform="translate(0.73 9.48)"/><path class="cls-1" d="M1921.44,875.61a19.85,19.85,0,0,1-10,.81,21,21,0,0,1-9.88-4.85,26.62,26.62,0,0,1-6.65-9.09,30.57,30.57,0,0,1-2.63-10.87c-.44-7.61,1.94-14.45,5.2-20.23a66.33,66.33,0,0,1,12.26-14.93c-1.2,6.3-2.78,12.4-3.92,18.19-.57,2.89-1,5.7-1.32,8.44l-.18,2c0,.67-.09,1.36-.1,2a38.25,38.25,0,0,0,.07,3.86,33.86,33.86,0,0,0,4,14.67,20.75,20.75,0,0,0,5.12,6A24.35,24.35,0,0,0,1921.44,875.61Z" transform="translate(0.73 9.48)"/><path class="cls-1" d="M333.44,868a18.94,18.94,0,0,1-9.08-2.67,45.49,45.49,0,0,1-7.87-5.59A70.46,70.46,0,0,1,303.89,845c-7.18-10.88-11.87-23.1-16.45-34.82-2.28-5.83-4.58-11.51-7.18-17a134.92,134.92,0,0,0-8.86-15.78,126.94,126.94,0,0,0-10.94-14.48,81.76,81.76,0,0,0-13.41-12.38,66.51,66.51,0,0,1,16.18,9.5A94.4,94.4,0,0,1,277,773.34a98.76,98.76,0,0,1,11,16,146.81,146.81,0,0,1,8.11,17.6c4.69,12,8.41,23.78,13.81,34.67A85.36,85.36,0,0,0,319.41,857a51.28,51.28,0,0,0,6.18,6.58A19.17,19.17,0,0,0,333.44,868Z" transform="translate(0.73 9.48)"/><path class="cls-1" d="M351.46,852a34.13,34.13,0,0,0,1.12-5.07,17.12,17.12,0,0,0-.12-5,21.92,21.92,0,0,0-4-8.87,14.83,14.83,0,0,0-3.22-3.25,5.89,5.89,0,0,0-3.43-1.26,12.06,12.06,0,0,0-4,1.05,12.37,12.37,0,0,1-7.07.4,13.45,13.45,0,0,1-6.18-3.61,18.26,18.26,0,0,1-3.78-5.53,19.12,19.12,0,0,1-1.62-6.51,18.07,18.07,0,0,1,.11-3.51,14.28,14.28,0,0,1,.38-1.86l.31-1,.32-.82c.92-2.13,1.92-3.65,2.39-4.82a6.48,6.48,0,0,0,.58-3.21,13.87,13.87,0,0,0-.89-3.85,25.88,25.88,0,0,0-1.94-4.1,21.63,21.63,0,0,0-5.54-6.54,13,13,0,0,0-3.51-1.77c-1.33-.45-2.94-.78-4.82-1.24l-1.45-.4c-.53-.15-1-.33-1.56-.52a22.81,22.81,0,0,1-8-5.24,20.79,20.79,0,0,1-5.78-11.2,18.22,18.22,0,0,1,.11-6.34,19.11,19.11,0,0,1,.82-3c.17-.47.36-.94.55-1.39l.31-.68.28-.58a23.16,23.16,0,0,0,1.7-4.36,11.75,11.75,0,0,0,.31-4.39,15.15,15.15,0,0,0-1.25-4.47,15.83,15.83,0,0,0-2.67-4A11.55,11.55,0,0,0,286,732.2a4,4,0,0,0-2.32-.36,2.22,2.22,0,0,0-1.08.54,3.07,3.07,0,0,0-.67,1,3.28,3.28,0,0,1,.54-1.26,2.64,2.64,0,0,1,1.08-.84,4.78,4.78,0,0,1,2.78-.15,13,13,0,0,1,5,2.39,17.32,17.32,0,0,1,6.39,9.27,15.86,15.86,0,0,1,.53,6,26.86,26.86,0,0,1-1.3,5.65l-.2.63-.16.55c-.1.36-.2.73-.27,1.09a14.9,14.9,0,0,0-.29,2.16,12.23,12.23,0,0,0,.45,4.11,14.45,14.45,0,0,0,4.54,6.83,15.91,15.91,0,0,0,3.52,2.21,16.2,16.2,0,0,0,1.93.73c.33.1.65.17,1,.25l1.14.23a54.17,54.17,0,0,1,5.59,1.2,21,21,0,0,1,6,2.86,24.81,24.81,0,0,1,4.79,4.41,34.55,34.55,0,0,1,3.53,5.06,33.11,33.11,0,0,1,2.58,5.67,21.74,21.74,0,0,1,1.24,6.67,15.46,15.46,0,0,1-1.67,7.15c-1,2-2,3.43-2.55,4.55a6.26,6.26,0,0,0-.29.7,6.42,6.42,0,0,0-.2.76,9.67,9.67,0,0,0-.16,1.83,11.91,11.91,0,0,0,.67,3.85,11.21,11.21,0,0,0,1.91,3.39,6.45,6.45,0,0,0,2.65,2,5.8,5.8,0,0,0,3.42.15,15.92,15.92,0,0,1,6.39-.54,10.16,10.16,0,0,1,3.35,1.21,13,13,0,0,1,2.58,2A19,19,0,0,1,351.9,831a25.37,25.37,0,0,1,2,5.27,20,20,0,0,1,.7,5.54,18,18,0,0,1-1,5.39A31.74,31.74,0,0,1,351.46,852Z" transform="translate(0.73 9.48)"/><path class="cls-1" d="M593.41,230.46c.8,1.55,1.72,3.22,1.54,5.25a4.63,4.63,0,0,1-1.29,2.78,3.57,3.57,0,0,1-3.26,1,4.88,4.88,0,0,1-2.84-1.87,8.06,8.06,0,0,1-1.32-2.89,55.22,55.22,0,0,1-1-5.49c-.5-3.54-1-7-2.43-9.8a12.38,12.38,0,0,0-2.75-3.62,7.07,7.07,0,0,0-3.68-1.7,5.18,5.18,0,0,0-3.59.85,10,10,0,0,0-2.94,3.23,21.79,21.79,0,0,0-2.91,9.25,14.54,14.54,0,0,0,0,2.38c.07.78.25,1.64.41,2.54a15.7,15.7,0,0,1,.27,2.9,7.19,7.19,0,0,1-.71,3,4.55,4.55,0,0,1-2.3,2.25,4.23,4.23,0,0,1-3,.07,3.76,3.76,0,0,1-2.33-4.62,3.28,3.28,0,0,0,2.61,3.6,3,3,0,0,0,2.1-.44,2.9,2.9,0,0,0,1.15-1.64,7.68,7.68,0,0,0-.45-4.54c-.26-.83-.56-1.69-.77-2.68a15.93,15.93,0,0,1-.35-3A23.15,23.15,0,0,1,566.19,216a13.92,13.92,0,0,1,4.18-4.83,9.74,9.74,0,0,1,3.22-1.42,9.62,9.62,0,0,1,3.54-.16,11.22,11.22,0,0,1,6,2.94,15.56,15.56,0,0,1,3.59,5.17c1.66,3.85,1.78,7.73,1.92,11.31s-.24,7.57,2.24,8.56a1.77,1.77,0,0,0,1.73-.24,3.46,3.46,0,0,0,1.25-1.81C594.37,234,593.89,232.14,593.41,230.46Z" transform="translate(0.73 9.48)"/><path class="cls-1" d="M572,215.91a15.56,15.56,0,0,0,2.18-5.73,15.9,15.9,0,0,0,.21-2.91l0-.71c0-.11,0-.28,0-.32l0-.08c-.06-.1-.11-.18-.18-.2l-.17,0-.06,0h0s0,0-.12,0a15.71,15.71,0,0,1-2.11-.35,8.5,8.5,0,0,1-4.49-2.46,6.82,6.82,0,0,1-1.62-3.38,7.42,7.42,0,0,1,2-6.51,6.88,6.88,0,0,1,2.9-1.75,8.68,8.68,0,0,1,5.84.39,18.93,18.93,0,0,1,4.44,2.77,29.52,29.52,0,0,0-4.91-.84,7.2,7.2,0,0,0-4.1.85,3.77,3.77,0,0,0-1.21,1.17,4.18,4.18,0,0,0-.59,1.52A4,4,0,0,0,570,199a2.72,2.72,0,0,0,.62,1.17,5.16,5.16,0,0,0,2.25,1.24c.51.17,1.07.32,1.64.46l3.36.66c.07,1,.1,2,.1,3a6.06,6.06,0,0,1,0,.73l0,.49-.17.89a13.83,13.83,0,0,1-1.2,3.34A12.7,12.7,0,0,1,572,215.91Z" transform="translate(0.73 9.48)"/><path class="cls-1" d="M100.87,365.53a42.57,42.57,0,0,0,10.77-9.37,32.14,32.14,0,0,0,3.57-5.74,23.17,23.17,0,0,0,1.92-6.06,19.07,19.07,0,0,0,0-5.94,19.53,19.53,0,0,0-2-5.49,39.69,39.69,0,0,0-3.64-5.48c-1.4-1.84-2.93-3.71-4.52-5.65-3.1-3.88-6.46-8-8.82-13.29l-.43-1c-.14-.34-.26-.7-.38-1a17.62,17.62,0,0,1-.66-2.13c-.17-.74-.35-1.48-.5-2.22l-.23-2.25A24.42,24.42,0,0,1,97,291.16a28,28,0,0,1,3.92-7.41,31.43,31.43,0,0,1,5.63-5.66,35.24,35.24,0,0,1,13.64-6.26,41.06,41.06,0,0,0-10.55,9.44,31.85,31.85,0,0,0-3.46,5.74,24.61,24.61,0,0,0-1.77,6.05,18.57,18.57,0,0,0,.2,5.88l.33,1.39c.18.45.34.9.5,1.35a12.15,12.15,0,0,0,.6,1.35,12.53,12.53,0,0,0,.71,1.35c2,3.62,5.09,7.19,8.23,11.06,1.58,1.94,3.19,4,4.72,6.2a40.35,40.35,0,0,1,4.12,7.29,25.8,25.8,0,0,1,2,8.77,24.46,24.46,0,0,1-1.38,8.74,26.22,26.22,0,0,1-4.08,7.36,32,32,0,0,1-5.74,5.61A36.43,36.43,0,0,1,100.87,365.53Z" transform="translate(0.73 9.48)"/><path class="cls-1" d="M185.94,326.15a9.38,9.38,0,0,0-4-3.81,14.46,14.46,0,0,0-5-1.56A19.48,19.48,0,0,0,167,322.2a12.41,12.41,0,0,0-2,1.09c-.65.42-1.34.92-2.13,1.5s-1.68,1.2-2.72,1.82a18.83,18.83,0,0,1-3.54,1.63,15.58,15.58,0,0,1-4.18.8,12.41,12.41,0,0,1-4.78-.67,13.49,13.49,0,0,1-4.06-2.3c-1-.84-1.83-1.62-2.43-2.15a7.48,7.48,0,0,0-2-1.41,12.6,12.6,0,0,0-2.68-.86,22,22,0,0,0-6.52-.28,30.81,30.81,0,0,0-6.86,1.59c-.59.2-1.18.41-1.77.64l-.45.17a2.84,2.84,0,0,0-.32.14l-.37.18-1.47.7c-1.91.95-3.7,1.83-5.32,2.6-.75-1.86-1.39-3.72-2-5.39l-.83-2.41-.09-.29-.06-.22-.12-.44-.25-.87c-.63-2.34-1.23-4.66-1.78-7,1.48,1.89,2.92,3.81,4.35,5.76l.54.74.26.37.13.18.11.12c.26.31.51.58.74.83a7.43,7.43,0,0,0,1.2,1.13c.64-.64,1.14-1.17,1.53-1.61l.27-.31.06-.07,0,0,.1-.07.44-.31c.58-.41,1.19-.82,1.82-1.21a30.63,30.63,0,0,1,8.43-3.75,26.26,26.26,0,0,1,9.81-.69,19.79,19.79,0,0,1,5.24,1.39,16.51,16.51,0,0,1,2.64,1.41,20.56,20.56,0,0,1,2.17,1.73c.87.79,1.5,1.42,2,1.81a4.44,4.44,0,0,0,1,.71,3,3,0,0,0,1.11.25A7.25,7.25,0,0,0,154,319a10.81,10.81,0,0,0,2-.62c.72-.3,1.53-.71,2.43-1.16s1.93-1,3.06-1.4a18.5,18.5,0,0,1,3.52-1,22,22,0,0,1,6.9-.16,20.84,20.84,0,0,1,6.41,1.91,15.89,15.89,0,0,1,5.18,4A9.82,9.82,0,0,1,185.94,326.15Z" transform="translate(0.73 9.48)"/><path class="cls-1" d="M1516.25,158.27a9.29,9.29,0,0,1,7.75,6.29,9.14,9.14,0,0,1,.12,5.6A10.57,10.57,0,0,1,1521,175a9.73,9.73,0,0,1-5.53,2.49,11.46,11.46,0,0,1-6-1.05,18.86,18.86,0,0,1-4.77-3.31,35.88,35.88,0,0,1-3.68-4.07c-1.12-1.42-2.11-2.85-3.08-4.22l-2.94-4.17-5.82-8.41c-1.9-2.84-3.82-5.67-5.73-8.52s-3.79-5.84-5.62-8.4a24.23,24.23,0,0,0-6-6.21,7.86,7.86,0,0,0-3.2-1.21,6,6,0,0,0-3.14.4,10.75,10.75,0,0,0-5.21,5.34,14.07,14.07,0,0,0-.76,1.89,19.52,19.52,0,0,0-.52,2.1,26.12,26.12,0,0,0-.43,4.5c-.12,6.21,1.56,13,1,20a26.52,26.52,0,0,1-.93,5.2,10.66,10.66,0,0,1-2.71,4.76,5.5,5.5,0,0,1-2.5,1.37,3.67,3.67,0,0,1-2.81-.54,4.17,4.17,0,0,1-1.68-2,2.41,2.41,0,0,1,.36-2.45,2.16,2.16,0,0,0,0,2.26,3.65,3.65,0,0,0,1.71,1.45,2.6,2.6,0,0,0,2,.05,4.11,4.11,0,0,0,1.62-1.3c1.7-2.36,1.78-5.74,1.63-8.85-.37-6.35-2.78-12.6-3.37-19.84a28.85,28.85,0,0,1,0-5.57,26.26,26.26,0,0,1,.48-2.86,20.57,20.57,0,0,1,.93-2.88,18.45,18.45,0,0,1,3.2-5.21,15.17,15.17,0,0,1,5.17-3.93,13.11,13.11,0,0,1,6.8-1.1,15,15,0,0,1,6.29,2.2,29.92,29.92,0,0,1,8.25,8.19c1.07,1.48,2,3,3,4.43l2.76,4.33q2.71,4.37,5.42,8.69t5.3,8.72l2.6,4.37c.88,1.47,1.69,2.9,2.55,4.22,1.72,2.65,3.66,5.14,6,6.56a7.38,7.38,0,0,0,3.69,1.13,6.18,6.18,0,0,0,3.69-1.13,7.49,7.49,0,0,0,3.28-7.45A8.59,8.59,0,0,0,1516.25,158.27Z" transform="translate(0.73 9.48)"/><path class="cls-1" d="M783.54,1017.83a30.81,30.81,0,0,1,6.13-6.1,46.9,46.9,0,0,1,7.4-4.68,66.33,66.33,0,0,1,16.61-5.88,67.2,67.2,0,0,1,17.8-1.4c6,.28,11.82,1.17,17.54,1.87,2.86.34,5.72.65,8.51.81a73.56,73.56,0,0,0,8.4,0c5.54-.35,11.11-1.32,15.76-3.5a14.85,14.85,0,0,0,5.57-4.2,8.18,8.18,0,0,0,1.67-5.76,20.56,20.56,0,0,0-2.19-7.13,42,42,0,0,1-3.28-9.19,16.72,16.72,0,0,1-.09-5.7c.11-.5.17-.93.32-1.49a9.59,9.59,0,0,1,.66-1.71,9.07,9.07,0,0,1,2.32-3,9.41,9.41,0,0,1,3.23-1.76,10.19,10.19,0,0,1,3.5-.47,9.44,9.44,0,0,1,3.62.89,7.14,7.14,0,0,1,3.37,3.24,5.65,5.65,0,0,1,.52,3.26c0,.28-.11.57-.18.84s-.14.39-.22.59a7.61,7.61,0,0,1-.52,1,10,10,0,0,1-2.41,2.59,21.8,21.8,0,0,1-4.62,2.6,55.5,55.5,0,0,1-8.94,2.85,83,83,0,0,1-18,2,154.19,154.19,0,0,1-17.68-1c-11.56-1.22-22.83-2.93-34.09-2.41a70.92,70.92,0,0,0-16.61,2.67,43.16,43.16,0,0,0-7.82,3.1,20,20,0,0,0-6.57,5.21,20.32,20.32,0,0,1,6.12-6,42.5,42.5,0,0,1,7.73-4A69.46,69.46,0,0,1,814,971.7c11.67-1.51,23.45-.54,34.92,0a164.87,164.87,0,0,0,17.07.08,80.79,80.79,0,0,0,16.54-2.43,50.31,50.31,0,0,0,7.64-2.69,13.48,13.48,0,0,0,2.88-1.72,3.23,3.23,0,0,0,.37-.36s.07-.08.06-.1h0l.35.2.2.08.13.07.15,0,1,.3.08,0h0a1.61,1.61,0,0,0-.7.3,4,4,0,0,0-.92.92l-.13-.06a1.88,1.88,0,0,0-.68-.1,2.88,2.88,0,0,0-.84.18,1.62,1.62,0,0,0-.54.34c-.49.19-.93,2.66-.43,4.77a42,42,0,0,0,2.81,7.53,40.28,40.28,0,0,1,1.73,4.57,20.85,20.85,0,0,1,.88,5.32,16.29,16.29,0,0,1-.82,5.66,15.91,15.91,0,0,1-2.81,5,20.79,20.79,0,0,1-4,3.62,27.86,27.86,0,0,1-4.48,2.42,49.42,49.42,0,0,1-18.49,3.41,76.94,76.94,0,0,1-9.12-.43c-3-.33-6-.81-8.85-1.33-5.78-1.05-11.39-2.25-17-2.89a68.15,68.15,0,0,0-33.19,4.25,49.41,49.41,0,0,0-7.6,3.79A31.47,31.47,0,0,0,783.54,1017.83Z" transform="translate(0.73 9.48)"/><path class="cls-1" d="M1090,349.65c2.92-6.67,5.94-13.35,7.79-20.17a48.7,48.7,0,0,0,1.74-10.22,34.08,34.08,0,0,0-.77-9.89,22.94,22.94,0,0,0-3.77-8.43,19.62,19.62,0,0,0-6.62-5.78,14,14,0,0,0-7.83-1.71,17.89,17.89,0,0,0-7.94,2.92,33.69,33.69,0,0,0-7.72,7.17c-.59.71-1.17,1.46-1.75,2.21l-.54.73-.86,1.21-1.68,2.44-3.28,4.84c-.54.78-1.07,1.57-1.61,2.36s-.84,1.11-1.32,1.74l-2.43-5.51-.6-1.36c-.2-.43-.38-.77-.57-1.15l-.56-1.12a5.47,5.47,0,0,0-.57-1,4.75,4.75,0,0,0-.68-.67l-.17-.13-.06-.06-.12-.1c-.15-.14-.34-.24-.5-.37a3.43,3.43,0,0,0-.55-.35,5.33,5.33,0,0,0-.58-.31,10.84,10.84,0,0,0-2.6-.84,11.13,11.13,0,0,0-2.76-.11,10,10,0,0,0-2.58.67,11.6,11.6,0,0,0-2.45,1.55,14.06,14.06,0,0,0-2.08,2.26,16.11,16.11,0,0,0-1.58,2.82,17,17,0,0,0-1.34,6.57,16.34,16.34,0,0,0,.34,3.45,20.51,20.51,0,0,0,1,3.45,30.28,30.28,0,0,0,9,12,29.5,29.5,0,0,1-12-10.47,21.72,21.72,0,0,1-1.94-3.78,20.59,20.59,0,0,1-1.23-4.2,21.25,21.25,0,0,1,2-13.31,20.63,20.63,0,0,1,2.72-4,19.07,19.07,0,0,1,3.84-3.23,17.15,17.15,0,0,1,4.87-2,18.84,18.84,0,0,1,5.18-.41,19.08,19.08,0,0,1,5.13,1.07c.42.14.82.34,1.24.52a9.15,9.15,0,0,1,1.21.61c.39.23.8.43,1.18.7l.45.32s0,0,.06,0a2.24,2.24,0,0,1,.29.13s0,0,0,0l.05-.15a1.76,1.76,0,0,0,.06-.25v-.08s0,0,0,0l.4-.59c.62-.89,1.26-1.78,1.95-2.67a48.72,48.72,0,0,1,4.57-5.18,34.82,34.82,0,0,1,5.72-4.52,26.79,26.79,0,0,1,13-4.29,23.15,23.15,0,0,1,7.1.83,24.26,24.26,0,0,1,6.33,2.82,27.57,27.57,0,0,1,9.18,9.46,29.56,29.56,0,0,1,3.9,12.1,37.86,37.86,0,0,1-.72,12,47.83,47.83,0,0,1-3.8,10.92C1098.81,338,1094.42,343.88,1090,349.65Z" transform="translate(0.73 9.48)"/><path class="cls-1" d="M1397.37-4.42c-3.46,11.66-13.63,19.91-25.28,20.22a25.86,25.86,0,0,1-16.46-5.19,24.11,24.11,0,0,1-6-6.6,22.09,22.09,0,0,1-2-4.06,23.35,23.35,0,0,1-1.11-4.37,69.44,69.44,0,0,0,14.44-3,41.41,41.41,0,0,1,10.3-2,42.54,42.54,0,0,1,11.13,1.31c2.1.48,4.38,1.05,6.85,1.69S1394.39-5.24,1397.37-4.42Z" transform="translate(0.73 9.48)"/><path class="cls-1" d="M1493.74-4.42a49.9,49.9,0,0,1,.34,6.5,44.28,44.28,0,0,1-.71,6.57,38.8,38.8,0,0,1-4.81,12.81,34.39,34.39,0,0,1-10.4,11,16.21,16.21,0,0,1-1.76,1.08c-.61.34-1.23.68-1.85,1-1.27.62-2.64,1.13-4,1.64a39.24,39.24,0,0,1-4.31,1.05c-.74.11-1.48.21-2.23.3l-1.11.11-1.13,0a29.2,29.2,0,0,1-8.82-1,30.42,30.42,0,0,1-7.89-3.43,32,32,0,0,1-10.82-11.13,33.05,33.05,0,0,1-4.38-13.42c-.11-1.15-.16-2.28-.16-3.42s.14-2.22.24-3.3.3-2.18.5-3.23.51-2.1.8-3.12L1433.35-2c.73.75,1.4,1.47,2.13,2.17l2.11,2.05c.7.61,1.41,1.21,2.11,1.77a47.38,47.38,0,0,0,8.37,5.39,30.35,30.35,0,0,0,7.39,2.66,22.18,22.18,0,0,0,3,.41,22.1,22.1,0,0,0,2.7,0,2.59,2.59,0,0,0,.68,0,5.16,5.16,0,0,1,.68,0c.46,0,.93-.14,1.42-.15s1-.15,1.52-.28,1.08-.18,1.65-.4a41.68,41.68,0,0,0,7.84-3.16A85.1,85.1,0,0,0,1484,2.91c.8-.53,1.57-1.1,2.39-1.66l2.41-1.77C1490.39-1.76,1492.09-3,1493.74-4.42Z" transform="translate(0.73 9.48)"/><path class="cls-1" d="M1431-4.42c5.46,10.9,14.47,18.16,22.56,27.81a76,76,0,0,1,5.81,7.8c.92,1.4,1.77,2.88,2.57,4.4a50.94,50.94,0,0,1,5.42,26,58.26,58.26,0,0,1-5.21,21.07,57.67,57.67,0,0,1-13,18.16,23.23,23.23,0,0,1-2.17,1.9l-2.26,1.83a26.84,26.84,0,0,1-2.39,1.67l-2.48,1.59a27.09,27.09,0,0,1-2.6,1.41l-2.67,1.31a27.67,27.67,0,0,1-2.69,1.1l-2.7,1a66.46,66.46,0,0,1-22.18,3.06,87.89,87.89,0,0,1-20.61-3.15A133.87,133.87,0,0,1,1367.8,106c-2.92-1.26-5.82-2.61-8.63-4s-5.44-2.76-8.05-4.11c-5.22-2.69-10.24-5.23-15.23-7.26a55,55,0,0,0-14.73-4.1,29.31,29.31,0,0,0-7.13.06,24.26,24.26,0,0,0-6.79,2c-8.51,4-15.26,15.21-13.12,27a27.1,27.1,0,0,1-3-18.29,30.33,30.33,0,0,1,9.94-17.77c.69-.59,1.44-1.13,2.18-1.7s1.5-1,2.26-1.48,1.57-.88,2.37-1.3,1.64-.79,2.48-1.11a40.58,40.58,0,0,1,10.5-2.65,63.67,63.67,0,0,1,20.57,1.37,147.52,147.52,0,0,1,18.43,5.49l8.5,3.09c2.72,1,5.42,1.93,8.13,2.82,10.77,3.53,21.49,6.24,31.41,6.41a47.56,47.56,0,0,0,14-1.65l1.62-.53a9.52,9.52,0,0,0,1.56-.56l1.48-.63.75-.29c.25-.11.47-.27.71-.39a35.17,35.17,0,0,0,5.59-3.57,43,43,0,0,0,14.89-23.75,38.91,38.91,0,0,0,.7-14.59c-.23-1.21-.35-2.45-.7-3.71s-.69-2.52-1.15-3.79a76.9,76.9,0,0,0-3.19-7.75c-2.43-5.23-5.38-10.56-7.93-16.16a74.34,74.34,0,0,1-3.39-8.61A53.18,53.18,0,0,1,1431-4.42Z" transform="translate(0.73 9.48)"/><path class="cls-1" d="M1096.32,167a18.25,18.25,0,0,0,5.81-4.87,27.76,27.76,0,0,0,3.81-6.53,34.41,34.41,0,0,0,1.3-3.56l1.15-3.7c.77-2.46,1.52-4.91,2.11-7.37a38.21,38.21,0,0,0,1.16-7.39,13.58,13.58,0,0,0-1.14-6.71,2.83,2.83,0,0,0-.4-.67l-.44-.63c-.36-.4-.77-.79-1.15-1.19s-.87-.69-1.33-1-1-.59-1.47-.84a19.52,19.52,0,0,0-6.75-1.77,27.42,27.42,0,0,0-13.92,2.41,17.67,17.67,0,0,0-5.41,4,10.53,10.53,0,0,0-2.64,5.45,7.65,7.65,0,0,0,1.38,5.38,18.34,18.34,0,0,0,4.86,4.48,22.3,22.3,0,0,0,13.11,3.61l-.24,6.8a20.82,20.82,0,0,0-11.07,2.24,6.52,6.52,0,0,0-1.75,1.41,2.7,2.7,0,0,0-.64,1.37,3.6,3.6,0,0,0,.28,1.8,6.6,6.6,0,0,0,1.1,2,6.72,6.72,0,0,0,2.53,1.95,10.42,10.42,0,0,0,1.62.61,13.1,13.1,0,0,0,1.79.29,14.19,14.19,0,0,0,1.85,0,15.83,15.83,0,0,0,1.83-.28,13.19,13.19,0,0,0,1.76-.52,11.49,11.49,0,0,0,1.56-.81,3.47,3.47,0,0,0,.7-.48c.22-.2.41-.3.67-.56.53-.52,1.07-1,1.58-1.56,1-1.07,2-2.19,3-3.36a62.13,62.13,0,0,0,5.1-7.46,77.7,77.7,0,0,0,7.23-16.74,76.32,76.32,0,0,1,3.1-9.36,21.06,21.06,0,0,1,2.79-4.67,16.69,16.69,0,0,1,4.19-3.74,12.72,12.72,0,0,1,5.59-1.88,10.71,10.71,0,0,1,5.9,1.29,14.1,14.1,0,0,1,6.55,8.8,21.7,21.7,0,0,1-.17,10.28c-.74,3.21-1.87,6.2-2.82,9.12a32.73,32.73,0,0,0-1.86,8.79,11.51,11.51,0,0,0,.52,4.24,9.06,9.06,0,0,0,2.17,3.6,4.53,4.53,0,0,0,3.65,1.42,5,5,0,0,0,3.51-2.15,8.85,8.85,0,0,0,1.63-4.15,29.57,29.57,0,0,0,.18-4.62,28,28,0,0,1,.24,4.68,9.4,9.4,0,0,1-1.37,4.59,6.08,6.08,0,0,1-4,2.88,6,6,0,0,1-4.92-1.47,10.77,10.77,0,0,1-2.94-4.13,11.05,11.05,0,0,1-.73-2.46,17.79,17.79,0,0,1-.25-2.5,34.33,34.33,0,0,1,1.31-9.65c.78-3.09,1.67-6.06,2.13-9a17.77,17.77,0,0,0-.35-8.38,9.61,9.61,0,0,0-4.75-5.69,6.32,6.32,0,0,0-6.47.91,11.35,11.35,0,0,0-2.69,2.71,16.64,16.64,0,0,0-1.87,3.59,85.1,85.1,0,0,0-2.49,8.83,80.38,80.38,0,0,1-7.4,18.39,64,64,0,0,1-5.55,8.41c-1,1.34-2.17,2.62-3.33,3.88-.61.62-1.18,1.21-1.85,1.84l-1.21,1c-.4.32-.85.57-1.28.85a18.35,18.35,0,0,1-11.42,2.43,16.89,16.89,0,0,1-5.82-1.7,14.61,14.61,0,0,1-4.88-4.1c-.45-.63-.84-1.31-1.23-2s-.6-1.42-.86-2.14a10.44,10.44,0,0,1-.35-5.11,9.85,9.85,0,0,1,2.37-4.71,13.78,13.78,0,0,1,3.6-2.8,23.82,23.82,0,0,1,7.49-2.54,27.35,27.35,0,0,1,7.64-.32l-.24,6.8a28.55,28.55,0,0,1-17-5.05,24,24,0,0,1-6.49-6.45,13.8,13.8,0,0,1-2.06-9.69,16.19,16.19,0,0,1,4.38-8.41,22.94,22.94,0,0,1,7.34-5,29.54,29.54,0,0,1,8.3-2.18,32.16,32.16,0,0,1,8.43.09,23.35,23.35,0,0,1,8.14,2.67,14,14,0,0,1,6.14,6.41,16.68,16.68,0,0,1,1,8.52,40.94,40.94,0,0,1-1.8,7.83c-.81,2.51-1.76,5-2.73,7.35l-1.43,3.59a38.65,38.65,0,0,1-1.65,3.58,28.5,28.5,0,0,1-4.51,6.41A18.5,18.5,0,0,1,1096.32,167Z" transform="translate(0.73 9.48)"/><path class="cls-1" d="M1197.25,728a11.11,11.11,0,0,1,2.32,2.13,3.8,3.8,0,0,1,.89,3.26,3.24,3.24,0,0,1-1,1.61,4.15,4.15,0,0,1-1.65.89,5,5,0,0,1-1.85.17,7.16,7.16,0,0,1-1.76-.39,22.28,22.28,0,0,1-3-1.4l-2.77-1.47-5.54-3a47.79,47.79,0,0,0-5.35-2.74c-1.73-.68-3.24-.71-4.26-.07a4.83,4.83,0,0,0-2,3.57,10.68,10.68,0,0,0,1,5c1.43,3.58,3.87,6.71,6.36,10.21.61.88,1.23,1.77,1.8,2.71s1.15,2,1.6,2.84c1,1.83,2,3.68,2.9,5.6a32,32,0,0,1,3.56,12.39,9.21,9.21,0,0,1-1.89,6.3,6.5,6.5,0,0,1-2.64,1.9,4.7,4.7,0,0,1-3.11.15,5.16,5.16,0,0,0,4.88-2.7,8.06,8.06,0,0,0,.74-5.5,25.17,25.17,0,0,0-1.82-5.61,45.36,45.36,0,0,0-2.83-5.32c-1.06-1.74-2.19-3.47-3.31-5.27-.58-.94-1.07-1.69-1.65-2.52s-1.2-1.62-1.83-2.43c-1.26-1.63-2.62-3.29-3.88-5.12a30.78,30.78,0,0,1-3.29-6,14.3,14.3,0,0,1-1.13-7.43,9.88,9.88,0,0,1,1.42-3.83,8.14,8.14,0,0,1,3.16-2.93,7.63,7.63,0,0,1,4.25-.76,11.33,11.33,0,0,1,3.67,1.07,23.32,23.32,0,0,1,3,1.7l2.63,1.76,5.17,3.56,2.56,1.79a22.2,22.2,0,0,0,2.48,1.62,4.18,4.18,0,0,0,2.47.54,2.33,2.33,0,0,0,1.92-1.3,3,3,0,0,0-.33-2.61A11.28,11.28,0,0,0,1197.25,728Z" transform="translate(0.73 9.48)"/><path class="cls-1" d="M1188.31,722.77a10.59,10.59,0,0,1-3.67,12.8,10.59,10.59,0,0,1,3.67-12.8Z" transform="translate(0.73 9.48)"/><path class="cls-1" d="M1194.17,726.84a8.19,8.19,0,0,1-3.87,10.82,8.2,8.2,0,0,1,3.87-10.82Z" transform="translate(0.73 9.48)"/><path class="cls-1" d="M1587.67,741.79a23.49,23.49,0,0,1-4.69,6.91,25.43,25.43,0,0,1-7,5,24.58,24.58,0,0,1-8.55,2.34,24,24,0,0,1-9.07-1,26.88,26.88,0,0,1-14.66-11.23,26.05,26.05,0,0,1-3.55-9,31.34,31.34,0,0,1-.27-9.66,36.5,36.5,0,0,1,2.46-9.26,40.07,40.07,0,0,1,2.11-4.32,43.72,43.72,0,0,1,2.57-4,57.65,57.65,0,0,1,13.26-12.85A97.78,97.78,0,0,1,1610.43,677c1.48-.1,3-.14,4.45-.18h3.34l1.19.05a37.77,37.77,0,0,1,9.71,1.61,24.24,24.24,0,0,1,9.28,5.34,21.56,21.56,0,0,1,5.71,9.2,29.88,29.88,0,0,1,1.31,9.84,47.39,47.39,0,0,1-1.23,9.12,66.34,66.34,0,0,1-2.61,8.45c-1,2.66-2,5.15-3.08,7.73q-3.11,7.68-6.27,15.29l-.79,1.9-.56,1.18-1.18,2.59-1.34,3-.36.81-.18.41,0,.05,0,0,.08,0,.15.06a8.2,8.2,0,0,0,1.33.4,10,10,0,0,0,6.07-.89,12.72,12.72,0,0,0,5.46-5.13,14,14,0,0,1-5.31,6.77,15.77,15.77,0,0,1-8.82,2.71,22,22,0,0,1-2.41-.13l-.31,0-.15,0s0-.07,0-.11l.07-.49.15-1c.19-1.32.35-2.66.49-4,.4-1.61.93-3.39,1.43-5.18l.75-2.69.53-2q2.12-8,4.33-16l2.22-8a60.21,60.21,0,0,0,1.54-7.6c.67-5,.56-10.08-1-13.89s-4.47-6-8.69-7.11a28.28,28.28,0,0,0-6.86-.76c-.58,0-1.25,0-1.91,0l-2,.07c-1.31.1-2.63.13-3.94.28a97.66,97.66,0,0,0-15.6,2.67,99.13,99.13,0,0,0-15,5.14,94.35,94.35,0,0,0-13.93,7.46,50.69,50.69,0,0,0-11.39,9.87,32.46,32.46,0,0,0-4,6,29,29,0,0,0-2.39,6.73,20.92,20.92,0,0,0,1.39,13.62,21.36,21.36,0,0,0,10.18,9.87,20,20,0,0,0,7.16,1.83,22,22,0,0,0,7.57-.9,24.25,24.25,0,0,0,7.07-3.48A23.5,23.5,0,0,0,1587.67,741.79Z" transform="translate(0.73 9.48)"/><path class="cls-1" d="M1644.62,530.15a19.54,19.54,0,0,0-4.07-5.17,12.31,12.31,0,0,0-5.31-2.79,9.08,9.08,0,0,0-2.74-.13,9.23,9.23,0,0,0-2.57.81,35.58,35.58,0,0,0-5.3,3.51,28.27,28.27,0,0,1-6.32,3.77,11.61,11.61,0,0,1-4,.82,11.38,11.38,0,0,1-4-.71,13,13,0,0,1-3.32-2,14.14,14.14,0,0,1-2.48-2.72,16.22,16.22,0,0,1-2.58-6.42,18.86,18.86,0,0,0,4.11,5.07,14.59,14.59,0,0,0,2.57,1.72,11.59,11.59,0,0,0,2.74.95,7.95,7.95,0,0,0,5.27-.83,38,38,0,0,0,5.27-3.54,27.36,27.36,0,0,1,6.4-3.77,11.67,11.67,0,0,1,4.09-.74,11.11,11.11,0,0,1,4,.83,13.08,13.08,0,0,1,5.75,4.81A16.63,16.63,0,0,1,1644.62,530.15Z" transform="translate(0.73 9.48)"/><path class="cls-1" d="M1628.38,490.11a5.44,5.44,0,0,0-2.67,4.05,9,9,0,0,0,.44,4.58,9.58,9.58,0,0,0,1.09,2A14.12,14.12,0,0,1,1628,502a7.77,7.77,0,0,1,.67,1.67,6,6,0,0,1-1.28,5.94c-.41.47-.79.81-1.05,1.07a3.49,3.49,0,0,0-.69.9,5.76,5.76,0,0,0-.46,1.22,10.49,10.49,0,0,0-.27,3,14,14,0,0,0,.58,3.2l.25.83.07.21c0,.06.09.22.14.32l.29.69c.36.84.71,1.68,1.07,2.51-.87.3-1.74.56-2.52.8l-1.13.32-.85.2c-1.09.24-2.17.46-3.26.67.9-.64,1.82-1.27,2.75-1.88.22-.15.5-.32.67-.45l.4-.32a3,3,0,0,0,.54-.53c-.28-.3-.51-.55-.7-.74a1.25,1.25,0,0,1-.35-.43c-.18-.28-.35-.57-.52-.86a13.89,13.89,0,0,1-1.53-4,11.86,11.86,0,0,1-.1-4.53,8.62,8.62,0,0,1,.75-2.38,7.81,7.81,0,0,1,1.55-2.14,6.42,6.42,0,0,0,1.23-1.34,2.16,2.16,0,0,0,.1-1.3,8.14,8.14,0,0,0-.72-2.07,10.92,10.92,0,0,1-1-3.08,10,10,0,0,1,1.1-6.09,7.45,7.45,0,0,1,2-2.29A4.55,4.55,0,0,1,1628.38,490.11Z" transform="translate(0.73 9.48)"/><path class="cls-1" d="M796,525.25a16.89,16.89,0,0,1-5.34,10.61,11.07,11.07,0,0,1-2.83,1.79,9,9,0,0,1-3.45.79,9.43,9.43,0,0,1-3.54-.56,16.12,16.12,0,0,1-3-1.43c-1.79-1.07-3.31-2.28-4.8-3.3a12.65,12.65,0,0,0-4.42-2.16,4.68,4.68,0,0,0-2.17,0,6.33,6.33,0,0,0-2.14,1.13,10.21,10.21,0,0,0-3.07,4.41,9.67,9.67,0,0,1,1.79-5.64,7.63,7.63,0,0,1,2.46-2.17,6.36,6.36,0,0,1,1.66-.64,7.88,7.88,0,0,1,1.75-.18,13.27,13.27,0,0,1,6.19,2c1.8,1,3.36,2.13,4.9,3.05a9.77,9.77,0,0,0,4.41,1.64,6.34,6.34,0,0,0,2.22-.26,9.33,9.33,0,0,0,2.24-1A20.39,20.39,0,0,0,796,525.25Z" transform="translate(0.73 9.48)"/><path class="cls-1" d="M761.18,508.86a9.71,9.71,0,0,1,.74-5.86,7.84,7.84,0,0,1,2-2.63,5.85,5.85,0,0,1,1.58-.94,6.61,6.61,0,0,1,1.81-.41,8.3,8.3,0,0,1,3.51.6,14.39,14.39,0,0,1,2.88,1.55c1.75,1.21,3.18,2.55,4.6,3.74a23.24,23.24,0,0,0,2.07,1.58,9.54,9.54,0,0,0,2.06,1.05,8.2,8.2,0,0,0,4.59.21c3.21-.74,6.23-3.12,8.54-6.09a16.27,16.27,0,0,1-2.7,5.16,12.78,12.78,0,0,1-4.88,3.83,10.39,10.39,0,0,1-6.65.56,11.94,11.94,0,0,1-3.15-1.33A20.34,20.34,0,0,1,775.6,508c-1.56-1.31-2.9-2.67-4.24-3.78a8.7,8.7,0,0,0-4.08-2.14,3.79,3.79,0,0,0-1,0,3.39,3.39,0,0,0-1,.32,6.47,6.47,0,0,0-1.87,1.53A10.21,10.21,0,0,0,761.18,508.86Z" transform="translate(0.73 9.48)"/><path class="cls-1" d="M784.28,535.65c-1.59-.06-3.18-.17-4.76-.32-.79-.08-1.58-.16-2.37-.26a7.46,7.46,0,0,1-.83-.14,3,3,0,0,1-.89-.38,2.79,2.79,0,0,1-1.11-1.58,4.72,4.72,0,0,1-.18-1,7.51,7.51,0,0,1,0-.78c0-.48,0-.89,0-1.28,0-.8.09-1.59.16-2.39.13-1.59.3-3.18.52-4.77s.48-3.15.78-4.7.61-3.06,1.06-4.68a12.83,12.83,0,0,1,.93-2.44,5.31,5.31,0,0,1,1.92-2.18,3.25,3.25,0,0,1,2.84-.14,7.66,7.66,0,0,1,2.06,1.29,9.19,9.19,0,0,0-2.25-.37,2,2,0,0,0-1.6.65,7.17,7.17,0,0,0-.9,3.75c-.08,1.47-.14,3.11-.27,4.67s-.3,3.17-.51,4.75-.48,3.16-.78,4.73c-.15.78-.31,1.56-.48,2.33l-.24,1.07c0,.14,0,.36-.07.39a.88.88,0,0,0-.05.15.49.49,0,0,0,.05.37l.14.14a1.35,1.35,0,0,0,.33.16c.73.3,1.46.62,2.18.94Q782.16,534.57,784.28,535.65Z" transform="translate(0.73 9.48)"/><path class="cls-1" d="M1170.21,445.46a14.41,14.41,0,0,0,12.86,7.42,11.3,11.3,0,0,0,3.57-.66,6.28,6.28,0,0,0,2.7-1.81,3.3,3.3,0,0,0,.75-2.58,5.86,5.86,0,0,0-1.24-2.86,10.32,10.32,0,0,0-1-1.09c-.19-.17-.39-.34-.6-.5l-.31-.25-.65-.46c-1-.67-2.07-1.28-3.12-1.91l-3-1.79,3.52-.82a32.43,32.43,0,0,0,3.32-.87l.37-.14.27-.11.3-.14c.19-.1.39-.19.56-.3a4.19,4.19,0,0,0,.92-.75,2.46,2.46,0,0,0-.06-3.81,9.18,9.18,0,0,0-5.38-1.81,15.62,15.62,0,0,0-6.14.81,14.65,14.65,0,0,1,6.11-2.07,10.23,10.23,0,0,1,6.77,1.26,4.9,4.9,0,0,1,2.23,3.49,5.63,5.63,0,0,1-1.21,4,6.87,6.87,0,0,1-1.46,1.44c-.27.2-.55.37-.83.54l-.42.23-.09.05h0c-.08.08-.1.11-.09.13a1.06,1.06,0,0,0,.19.05h0l.09.07.41.31a9.52,9.52,0,0,1,.79.66,11.1,11.1,0,0,1,1.48,1.57,9,9,0,0,1,1.88,4.8,6.66,6.66,0,0,1-1.81,5.11,9.23,9.23,0,0,1-4.3,2.48,13.37,13.37,0,0,1-4.6.4A14.58,14.58,0,0,1,1170.21,445.46Z" transform="translate(0.73 9.48)"/><path class="cls-1" d="M1210.08,453.22a4.25,4.25,0,0,1-5.67-.06,5.78,5.78,0,0,1-1.64-2.86,11.56,11.56,0,0,1-.31-3.12c0-1,.13-2,.22-2.9s.15-1.8.16-2.67a10.69,10.69,0,0,0-.8-4.69,4.93,4.93,0,0,0-1.21-1.63,5.56,5.56,0,0,0-1.82-1.05,5.8,5.8,0,0,0-4.26.12c-1.34.57-2.56,2-4,3.26a8.39,8.39,0,0,1-2.57,1.49,4.17,4.17,0,0,1-2.85,0,4,4,0,0,0,2.48-.78,7.9,7.9,0,0,0,1.81-1.84c1.06-1.39,1.92-3.18,3.85-4.51a8.1,8.1,0,0,1,6.59-1,8.34,8.34,0,0,1,3.15,1.57,8,8,0,0,1,1.27,1.32,9.46,9.46,0,0,1,.92,1.52c2,4.42.49,8.73-.18,12.07-.32,1.7-.42,3.35.43,4.63A3.6,3.6,0,0,0,1210.08,453.22Z" transform="translate(0.73 9.48)"/><path class="cls-1" d="M608.49,811.56a19.54,19.54,0,0,0-4.07-5.17,12.31,12.31,0,0,0-5.31-2.79,8.76,8.76,0,0,0-2.74-.12,9.31,9.31,0,0,0-2.57.8,36.38,36.38,0,0,0-5.3,3.51,28.42,28.42,0,0,1-6.31,3.77,10.9,10.9,0,0,1-8,.11,13,13,0,0,1-3.32-2,14.73,14.73,0,0,1-2.48-2.71,16.41,16.41,0,0,1-2.58-6.43,19,19,0,0,0,4.11,5.07,15,15,0,0,0,2.57,1.72,11.16,11.16,0,0,0,2.74.95,8.58,8.58,0,0,0,2.72,0,8.27,8.27,0,0,0,2.55-.86,39.84,39.84,0,0,0,5.27-3.54,26.91,26.91,0,0,1,6.41-3.78,12.09,12.09,0,0,1,4.08-.74,11.07,11.07,0,0,1,4,.83,13.08,13.08,0,0,1,5.75,4.81A16.53,16.53,0,0,1,608.49,811.56Z" transform="translate(0.73 9.48)"/><path class="cls-1" d="M592.25,771.53a5.45,5.45,0,0,0-2.67,4,9,9,0,0,0,.44,4.58,9.21,9.21,0,0,0,1.1,2c.24.37.51.8.77,1.29a8.58,8.58,0,0,1,.68,1.67,6,6,0,0,1-1.29,5.94c-.41.47-.79.81-1,1.07a3.37,3.37,0,0,0-.69.91,5.35,5.35,0,0,0-.45,1.21,10.17,10.17,0,0,0-.28,3,14,14,0,0,0,.58,3.19l.26.83.06.21c0,.06.09.22.14.33l.29.69c.36.83.72,1.67,1.07,2.5-.87.31-1.74.56-2.52.8l-1.13.32c-.33.09-.56.13-.85.2-1.09.24-2.17.46-3.26.67.9-.64,1.82-1.27,2.75-1.88l.67-.44.4-.33a3,3,0,0,0,.54-.52c-.27-.31-.51-.55-.7-.74a1.47,1.47,0,0,1-.35-.44c-.18-.27-.35-.56-.52-.86a14.25,14.25,0,0,1-1.53-4,12.07,12.07,0,0,1-.1-4.53,9.29,9.29,0,0,1,.75-2.39,7.81,7.81,0,0,1,1.55-2.14,6.42,6.42,0,0,0,1.23-1.34,2.13,2.13,0,0,0,.1-1.29,7.89,7.89,0,0,0-.72-2.07,11.47,11.47,0,0,1-1-3.08,10,10,0,0,1,1.11-6.09,7.33,7.33,0,0,1,1.94-2.3A4.5,4.5,0,0,1,592.25,771.53Z" transform="translate(0.73 9.48)"/><path class="cls-1" d="M1194.8,927.05a14.92,14.92,0,0,1-12.11,8.62,14.31,14.31,0,0,1-2.07.05,16,16,0,0,1-2.3-.31,16.4,16.4,0,0,1-4.51-1.69,16.23,16.23,0,0,1-3.8-2.92c-.56-.56-1.12-1.16-1.67-1.8l-.41-.49-.1-.12v-.09l0-.19c0-.25,0-.5,0-.76l6.75-5.15.88-.69.77-.63,1.14-1c.76-.64,1.5-1.31,2.25-2,3-2.64,5.9-5.34,8.71-8.16a148.16,148.16,0,0,0,15.47-18c1.17-1.58,2.25-3.22,3.34-4.85l1.56-2.48c.23-.39.36-.67.56-1l.43-1a9.76,9.76,0,0,0,.68-3.79,10.32,10.32,0,0,0-1-3.79,19.62,19.62,0,0,0-6.1-7.1,30.28,30.28,0,0,0-9.18-4.67c-1-.33-2.2-.56-3.31-.82s-2.28-.42-3.45-.52a44.3,44.3,0,0,0-7.12-.2,75.2,75.2,0,0,0-14.67,2.29c-9.85,2.4-19.75,6.39-30.3,9.27a92.78,92.78,0,0,1-16.27,3.1,51.22,51.22,0,0,1-16.72-1c-5.46-1.33-10.81-4-14.46-8.37a20.41,20.41,0,0,1-4-7.18,16.05,16.05,0,0,1-.51-7.94,17.4,17.4,0,0,0,6.51,13.2,24.28,24.28,0,0,0,13.45,5.2,48.92,48.92,0,0,0,14.82-1.11,100.13,100.13,0,0,0,14.59-4.46c4.84-1.84,9.67-3.92,14.65-6A155.76,155.76,0,0,1,1163,853a85.47,85.47,0,0,1,8.31-2.06,65.26,65.26,0,0,1,8.7-1.14c1.48-.13,3-.12,4.49-.13s3,.09,4.54.28,3,.4,4.55.66,3,.66,4.55,1.16a40.37,40.37,0,0,1,12.83,6.82,29.89,29.89,0,0,1,9.33,12.1,21.16,21.16,0,0,1,1.48,8.3,20.56,20.56,0,0,1-2,8.18c-.31.59-.61,1.21-1,1.77l-.52.84-.27.42-.24.34-1.89,2.63c-1.31,1.71-2.62,3.41-4,5a129.64,129.64,0,0,1-18.15,17.57c-3.25,2.61-6.6,5-10,7.36-.86.57-1.7,1.16-2.57,1.7l-1.3.83a4.39,4.39,0,0,1-.44.26l-.35.2-3.25,1.73-.59.32-.14.08-.08,0,0,.06.12.24a7,7,0,0,0,.57.92,8,8,0,0,0,1.66,1.63,9.46,9.46,0,0,0,3.64,1.63,11.79,11.79,0,0,0,1.67.24A13.91,13.91,0,0,0,1194.8,927.05Z" transform="translate(0.73 9.48)"/><path class="cls-1" d="M1151.36,886.31a34.54,34.54,0,0,1-13.68-42.66c4.72,6.9,8.2,13.27,10.4,20.14S1151.18,877.91,1151.36,886.31Z" transform="translate(0.73 9.48)"/><path class="cls-1" d="M1255.44,247.46a24.71,24.71,0,0,1-1.79,5.39,8,8,0,0,1-1.83,2.4,5.06,5.06,0,0,1-3,1.17,7.48,7.48,0,0,1-3.14-.65,14.28,14.28,0,0,1-2.67-1.57,17.33,17.33,0,0,1-4-4.56,71.71,71.71,0,0,1-5-10.54,48.7,48.7,0,0,0-2.38-5,18.17,18.17,0,0,0-3.08-4.18,7.91,7.91,0,0,0-3.87-2.26,3.39,3.39,0,0,0-3.34,1.08,4.38,4.38,0,0,0-.79,1.8,11,11,0,0,0-.15,2.42c0,.88.12,1.8.18,2.76,0,.49.07,1,.07,1.5l0,1.42c0,1.88,0,3.75,0,5.62v2.8c0,.93,0,1.87-.09,2.9a5.79,5.79,0,0,1-.38,1.57,2.61,2.61,0,0,1-1.23,1.41,2,2,0,0,1-1.9-.14,2.77,2.77,0,0,1-1.06-1.29,5.69,5.69,0,0,1-.33-2.92,16.44,16.44,0,0,1,.64-2.73,17.14,17.14,0,0,0-.18,2.76,5,5,0,0,0,.67,2.49c.4.72,1.21,1,1.57.68a2.5,2.5,0,0,0,.54-1.95c-.38-3.69-.76-7.41-1.14-11.13l-.13-1.4c0-.42-.11-.87-.17-1.32-.13-.91-.29-1.87-.39-2.88a13.18,13.18,0,0,1,0-3.25,7.48,7.48,0,0,1,1.4-3.4,6.71,6.71,0,0,1,3.13-2.25,7.45,7.45,0,0,1,3.76-.27,11.52,11.52,0,0,1,5.91,3.31,20.84,20.84,0,0,1,3.66,5.12,42.39,42.39,0,0,1,2.39,5.45,91,91,0,0,0,4.1,10.39,15.39,15.39,0,0,0,3.06,4.2,7.9,7.9,0,0,0,4.32,2.31,3.5,3.5,0,0,0,2.22-.55,7,7,0,0,0,1.83-1.82A26.84,26.84,0,0,0,1255.44,247.46Z" transform="translate(0.73 9.48)"/><path class="cls-1" d="M1220,237.61a2.91,2.91,0,0,0,.72,2.88,1.67,1.67,0,0,0,.48.36,2.34,2.34,0,0,0,.55.22,4.75,4.75,0,0,0,1.29.09l1.65-.08c.59,0,1.18,0,1.77,0,1.17,0,2.35,0,3.53.1s2.33.2,3.49.35a13.48,13.48,0,0,1,3.75.92,6.45,6.45,0,0,1,1.78,1.17,5.69,5.69,0,0,1,1.22,1.66,5.25,5.25,0,0,1,.39,3.68,5.41,5.41,0,0,0-1.74-2.7,4.54,4.54,0,0,0-2.53-1.07,24.1,24.1,0,0,0-3.13-.06q-1.76,0-3.51-.09c-1.18-.08-2.35-.2-3.51-.35q-.87-.12-1.74-.27c-.57-.1-1.15-.19-1.83-.36a5.9,5.9,0,0,1-2-.91,4.6,4.6,0,0,1-.83-.82,3.22,3.22,0,0,1-.53-1,4.05,4.05,0,0,1-.15-2A2.56,2.56,0,0,1,1220,237.61Z" transform="translate(0.73 9.48)"/><path class="cls-1" d="M625.9,361.6a8.24,8.24,0,0,1,2.42-1.51,4,4,0,0,1,3,0,3.78,3.78,0,0,1,2.07,2.51,3.91,3.91,0,0,1,.08,1.74,5.34,5.34,0,0,1-.6,1.59,18.78,18.78,0,0,1-1.82,2.4l-1.84,2.18-3.71,4.32a14.92,14.92,0,0,0-2.94,4.1,3,3,0,0,0,.77,3.32,7.61,7.61,0,0,0,3.84,2.14,13.39,13.39,0,0,0,4.94,0c3.47-.45,6.77-1.92,10.5-3.21.93-.32,1.88-.62,2.87-.86s1.89-.42,2.82-.63c1.84-.4,3.72-.8,5.64-1.1a35.68,35.68,0,0,1,5.85-.44,22.39,22.39,0,0,1,5.84.75,10.27,10.27,0,0,1,5.08,3,7.26,7.26,0,0,1,1.46,2.54,3.81,3.81,0,0,1-.08,2.8,3.61,3.61,0,0,0-.4-2.62,6.59,6.59,0,0,0-1.69-2,9.31,9.31,0,0,0-4.79-1.91,22.81,22.81,0,0,0-5.35,0,38,38,0,0,0-5.34,1c-1.78.45-3.56,1-5.39,1.53a46.25,46.25,0,0,0-5.22,1.71c-1.71.68-3.46,1.46-5.34,2.15a29.28,29.28,0,0,1-6,1.53,16.37,16.37,0,0,1-6.55-.24,11.18,11.18,0,0,1-5.87-3.69,7.41,7.41,0,0,1-1.6-3.52,6.88,6.88,0,0,1,.6-3.85,17,17,0,0,1,4-4.84l4.15-3.9,2.08-1.92a17.46,17.46,0,0,0,1.88-1.86,2.75,2.75,0,0,0,.65-2,2.6,2.6,0,0,0-1.14-1.9,3.21,3.21,0,0,0-2.42-.39A8.29,8.29,0,0,0,625.9,361.6Z" transform="translate(0.73 9.48)"/><path class="cls-1" d="M620.08,367.94a11.59,11.59,0,0,1,12,6.16,11.59,11.59,0,0,1-12-6.16Z" transform="translate(0.73 9.48)"/><path class="cls-1" d="M624.49,363.93a8.94,8.94,0,0,1,10,5.86,8.92,8.92,0,0,1-10-5.86Z" transform="translate(0.73 9.48)"/></svg>